<svg width="192" height="192" viewBox="0 0 192 192" fill="none" xmlns="http://www.w3.org/2000/svg">
<g clip-path="url(#clip0_5_80)">
<path d="M192 0H0V192H192V0Z" fill="#F4F8F7"/>
<path d="M192 0H0V192H192V0Z" fill="#F4F8F7"/>
<path d="M7.04642 51.6274C7.69814 51.3202 8.3046 51.0091 8.87908 50.6957C8.88148 50.6945 8.88884 50.6915 8.89124 50.6904C14.1378 47.9811 18.5771 46.8526 24.0267 44.6369C34.0903 40.5446 46.3528 35.139 57.6628 30.1847L57.6518 30.1895C59.3188 29.4553 61.182 29.211 62.9571 29.4722C64.7666 29.7334 66.4776 30.5164 67.8428 31.677C69.2443 32.8618 70.279 34.4357 70.8203 36.1399C71.3828 37.8943 71.4222 39.7785 70.9786 41.5047L70.9827 41.4882C70.9117 41.7704 70.841 42.051 70.7706 42.3301C67.9652 53.4426 65.0715 64.7234 62.2516 75.761C62.1071 76.3271 61.9293 76.6419 61.8637 76.8986C61.246 79.3152 60.3126 83.3933 59.6984 85.7902C59.207 87.7079 58.586 90.1674 57.9363 92.7324C57.1772 95.5954 57.3033 98.79 57.846 101.061C57.9376 101.466 58.0372 101.844 58.1377 102.191C58.5827 103.773 59.3622 105.271 59.5012 105.938C59.8025 106.469 60.1632 106.629 60.2589 106.752C60.2597 106.753 60.2606 106.755 60.2614 106.757C60.561 107.161 61.238 108.256 61.4409 108.459C61.4642 108.484 61.4306 108.297 61.6375 108.513C61.6981 108.577 61.7751 108.667 61.8747 108.792C61.9213 108.851 61.7995 108.866 62.2669 109.398C62.3886 109.537 64.0722 111.21 64.5271 111.712C66.0405 113.38 69.5075 117.495 71.2908 119.514C71.5632 119.822 71.7647 119.961 72.0532 120.287C72.2023 120.455 72.3768 120.75 72.4228 120.801C72.6249 121.027 73.7201 121.826 72.9726 121.852C73.9143 122.864 73.7882 122.432 73.9018 122.374C74.9077 123.487 75.1821 124.209 75.6574 124.312C80.5118 129.868 85.3662 135.423 90.2205 140.979C90.2572 140.949 90.2939 140.92 90.3306 140.89C91.6284 142.645 92.3599 142.995 92.9767 144.106C93.5281 144.64 94.0795 145.175 94.6309 145.709C95.3204 146.505 96.0106 147.301 96.7015 148.096L96.6907 148.084C97.8652 149.412 98.6545 151.073 98.9435 152.818C99.2372 154.563 99.0294 156.386 98.3526 158.018C97.6799 159.652 96.5403 161.088 95.1043 162.113C93.6704 163.143 91.945 163.758 90.1847 163.869L90.2039 163.868C75.647 164.863 61.1433 165.989 46.7278 166.988C45.9088 167.045 45.6974 166.959 44.3468 167.052C42.8556 167.155 40.7662 167.416 38.8009 167.551C38.3765 167.58 37.902 167.607 37.3992 167.633C36.1554 167.682 34.7037 167.896 33.5758 168.23C33.2375 168.328 33.0174 168.472 32.98 168.484C32.76 168.557 32.7153 168.466 32.5016 168.542C32.246 168.633 31.9699 168.823 31.6824 168.942C30.7053 169.34 29.7288 169.934 29.4621 170.106C29.4334 170.124 29.4125 170.137 29.4003 170.145C28.7949 170.515 28.6158 170.534 28.5656 170.565C27.9113 171.018 28.2093 170.918 28.0471 171.031C27.228 171.632 26.5054 171.949 25.6995 173.126C25.6648 173.043 25.6305 172.959 25.5967 172.875C24.8335 173.654 25.479 173.263 25.3611 173.454C25.2848 173.508 23.8738 175.346 23.8063 175.519C23.644 175.763 23.5398 175.886 23.469 175.951C23.3776 176.044 23.3397 176.048 23.3212 176.077C23.236 176.214 22.3609 177.936 21.7758 178.738C21.0835 179.686 21.5935 178.389 21.4099 178.618C21.3789 178.656 20.7751 179.721 20.6317 179.827C20.4751 179.945 21.0155 179.035 20.9803 179.033C20.9559 179.032 19.9286 180.466 20.011 180.123C20.0595 179.838 21.3883 177.854 21.6035 177.394C21.639 177.318 21.4486 177.388 21.4821 177.322C21.5368 177.217 22.0193 176.392 22.587 175.429C23.3022 174.174 24.4365 172.827 24.5364 172.743C24.419 172.968 24.3069 173.195 24.2 173.422C24.4074 173.172 24.6214 172.927 24.8415 172.688C24.5697 173.064 24.3133 173.45 24.0728 173.842C24.8342 173.579 25.8479 171.795 25.7753 171.564C25.7272 171.449 24.6035 172.168 25.3476 171.195C25.1945 171.303 25.0427 171.414 24.8922 171.527C24.6576 171.834 24.4333 172.148 24.2194 172.466C24.4077 172.294 24.5991 172.125 24.7933 171.961C24.7541 172.052 24.7157 172.143 24.6781 172.234C24.2431 172.791 23.8414 173.37 23.4752 173.968C23.246 174.245 23.2091 174.128 23.0523 174.323C22.7194 174.739 22.4993 175.054 22.3457 175.286C21.5081 176.572 22.3256 175.59 21.3121 177.231C21.0974 177.49 20.8826 177.749 20.6679 178.008C20.9158 178.019 20.2727 178.836 19.7189 179.957C19.7338 179.792 19.7488 179.628 19.7637 179.464C18.8763 181.037 16.7045 184.006 17.5439 183.355C17.3045 183.694 17.065 184.033 16.8255 184.372C16.7025 184.706 16.5795 185.039 16.4565 185.372C16.2042 185.784 15.9519 186.196 15.6996 186.608C15.6687 186.592 15.6378 186.577 15.607 186.561C15.8029 186.229 15.9989 185.898 16.1949 185.566C15.957 185.761 15.7191 185.956 15.4811 186.151C15.3514 186.405 15.2217 186.658 15.092 186.912C15.785 185.937 15.1246 187.372 15.0505 187.771C14.5828 188.662 14.1003 189.123 13.9216 189.409C13.8376 189.543 13.1613 191.311 13.2326 190.503C12.7802 191.351 12.3277 192.199 11.8752 193.047C11.6609 193.357 11.4465 193.666 11.2322 193.976C11.5068 193.191 10.135 195.124 10.9628 193.592C11.5808 192.448 11.8751 192.25 12.1881 191.719C12.4705 191.241 12.5317 190.936 12.8358 190.413C14.8824 186.898 16.5859 184.056 18.5923 180.756C18.9888 180.103 19.299 179.48 19.5661 179.043C19.8678 178.549 19.6094 179.239 19.958 178.588C20.3238 177.905 20.3186 177.707 20.421 177.53C20.4847 177.42 20.7715 177.121 20.9605 176.802C21.2734 176.273 21.6321 175.638 21.9562 175.056C22.384 174.278 22.8081 173.639 22.8764 173.545C22.9339 173.302 25.6076 170.489 25.8206 170.449C25.903 170.392 25.9668 170.783 26.38 169.955C26.5816 169.781 26.7869 169.612 26.9958 169.447C27.0031 169.528 27.0109 169.61 27.0192 169.691C27.9118 168.766 27.8704 168.889 28.4835 168.518C28.6285 168.434 28.8115 168.325 29.0581 168.18C31.1313 166.932 34.2249 165.868 37.2623 165.695C38.9497 165.581 40.5911 165.469 42.0614 165.358C43.0492 165.284 43.4199 165.175 44.5884 165.088C45.6741 165.007 48.5271 165.06 47.8865 164.758C50.3237 164.889 50.6765 164.347 51.9085 164.584C52.0517 164.527 52.1948 164.471 52.338 164.414C53.665 164.523 54.0581 164.319 55.4901 164.195C56.1072 164.142 55.4098 164.404 56.6404 164.081C56.8799 164.082 57.1194 164.083 57.3589 164.084C57.3071 164.14 57.2553 164.195 57.2035 164.25C58.5855 164.112 58.6767 164.133 58.5053 163.951C59.1764 163.94 59.8475 163.928 60.5186 163.917C60.5973 163.848 60.676 163.779 60.7547 163.71C60.426 163.611 45.2559 164.846 43.1453 165.05C41.6716 165.067 39.3291 165.258 37.2468 165.432C35.941 165.539 34.7721 165.788 34.0484 165.948C33.3402 166.11 32.986 166.049 31.9695 166.383C30.9502 166.718 29.7932 167.419 29.304 167.697C29.0753 167.823 28.7298 168.017 28.3276 168.265C25.7052 169.675 21.7832 174.206 25.3171 170.285C25.1395 170.352 24.9622 170.422 24.7852 170.494C23.2407 172.417 23.7397 171.659 22.4709 173.255C22.205 173.609 21.8153 174.261 21.5017 174.786C21.1814 175.319 20.8978 175.714 20.7959 175.584C20.9617 175.281 21.1352 174.977 21.3129 174.675C21.9719 173.548 22.8117 172.529 23.5443 171.693C23.6231 171.583 24.6533 170.273 25.3391 169.753C25.956 169.284 25.7061 169.834 26.8376 168.562C27.4058 168.347 27.8031 168.111 28.0981 167.893C28.4272 167.65 28.627 167.432 28.7702 167.332C29.2419 167.01 29.3745 167.126 29.8884 166.895C30.4501 166.647 30.7997 166.388 30.8776 166.354C31.6165 165.897 35.9184 164.865 36.1445 165.018C35.9726 165.068 35.8016 165.12 35.6317 165.175C36.7632 165.068 36.5118 164.946 36.8093 164.894C36.9414 164.883 37.0734 164.873 37.2057 164.864C37.3054 164.857 37.4034 164.851 37.5014 164.844C37.4089 164.885 37.3163 164.927 37.2238 164.968C38.6687 164.861 37.5544 164.817 39.6063 164.678C40.9092 164.589 42.2639 164.629 42.3899 164.61C42.427 164.605 42.0107 164.544 42.5409 164.495C43.4187 164.414 44.9389 164.311 45.1173 164.421C45.5467 164.374 45.5018 164.258 45.5588 164.251C45.8079 164.222 50.1063 163.884 50.8764 163.823C53.0101 163.656 55.3889 163.516 57.7007 163.336C57.9384 163.318 57.7919 163.404 58.0301 163.386C58.4125 163.355 60.3685 163.099 60.6614 163.07C61.3923 162.999 63.3223 162.913 63.623 162.857C63.6658 162.849 63.0246 162.79 63.7637 162.707C64.5843 162.614 64.1508 162.784 64.1956 162.782C65.874 162.713 66.9249 162.544 68.0672 162.446C68.4373 162.414 69.1285 162.471 69.6492 162.404C69.7092 162.396 69.5832 162.308 69.642 162.299C70.4287 162.194 71.1805 162.322 71.5232 162.31C72.3618 162.28 71.8971 162.18 71.9406 162.176C72.4977 162.133 73.2511 162.128 74.0983 162.063C77.875 161.773 80.9581 161.552 84.9759 161.282C85.4804 161.248 86.0857 161.3 86.1628 161.295C86.4013 161.277 86.3255 161.173 87.0153 161.127C88.0399 161.06 89.0115 160.991 89.9998 160.923C90.4976 160.89 91.0007 160.799 91.4956 160.647C91.8307 160.542 92.008 160.579 92.2604 160.472C92.526 160.358 92.9735 160.106 93.4126 159.758C94.403 159.026 95.1322 157.758 95.3342 157.835C95.4638 157.508 95.5721 157.204 95.6674 156.915C96.0579 155.681 96.3204 154.667 96.1649 153.475C96.1564 153.416 96.1469 153.356 96.1365 153.295C95.956 152.217 95.4374 150.996 94.5354 150C92.9616 148.242 91.2177 146.293 89.9876 144.86C89.6034 144.412 89.4839 144.148 89.2702 143.899C88.8871 143.452 86.6252 140.96 86.5188 140.819C86.3094 140.543 86.7269 140.451 85.3069 139.333C84.6002 138.567 84.7967 138.558 84.6604 138.391C83.5957 137.091 82.2581 136.092 82.6954 136.114C81.3381 134.704 80.3697 133.868 80.0619 133.076C79.9614 133.178 79.2887 132.546 78.5964 131.678C79.5275 132.37 79.5499 132.163 81.3324 134.25C81.3605 134.283 81.2283 134.29 81.2563 134.323C81.5103 134.621 82.0904 135.2 82.528 135.704C82.9657 136.209 82.6673 135.978 82.8452 136.177C83.0082 136.36 83.0771 136.288 83.3125 136.553C84.0757 137.412 84.7689 138.157 85.2027 138.646C85.4759 138.954 85.7156 139.358 85.9271 139.597C86.7451 140.524 88.5284 142.442 89.5616 143.628C89.7767 143.875 89.6124 143.837 90.0806 144.379C90.1353 144.443 90.4137 144.604 90.8447 145.061C91.2758 145.518 91.5599 145.916 91.8345 146.212C92.064 146.459 92.0387 146.293 92.5001 146.808C92.69 147.019 93.8266 148.33 94.9556 149.636C95.984 150.783 96.5024 152.278 96.6342 153.211C96.7147 153.72 96.7171 154.066 96.7189 154.15C96.7158 154.831 96.5445 155.136 96.5005 155.537C96.4918 155.608 96.5948 155.75 96.5478 155.999C96.4802 156.353 96.3747 156.739 96.2184 157.141C95.8083 158.212 94.9987 159.401 93.7802 160.269C92.7381 161.022 91.407 161.516 90.0375 161.59C87.5615 161.738 85.0506 161.873 83.3249 161.993C75.8713 162.511 68.9997 163.06 61.4819 163.609C61.3493 163.64 61.2167 163.671 61.0841 163.701C61.8443 163.649 62.6044 163.598 63.3646 163.546C63.3735 163.603 63.3823 163.66 63.3911 163.718C64.4194 163.655 64.2738 163.529 64.2392 163.448C64.6219 163.457 65.0046 163.465 65.3873 163.474C65.7014 163.25 68.2468 163.208 69.5542 163.117C70.4046 163.058 71.4112 162.912 71.86 162.887C72.8083 162.833 72.7921 162.959 72.8667 162.956C72.9933 162.95 74.3083 162.749 75.2626 162.687C76.6734 162.595 76.8392 162.775 78.7587 162.479C81.2396 162.407 83.9773 162.167 86.6427 161.966C86.1472 162.177 88.5253 161.845 89.6031 161.773C89.7535 161.763 89.9047 161.753 90.0566 161.743C91.3738 161.663 92.7235 161.206 93.8664 160.39C94.9637 159.61 95.8634 158.502 96.3972 157.215C96.9223 155.959 97.0939 154.539 96.8669 153.171C96.6459 151.814 96.0329 150.516 95.1206 149.48C93.1111 147.162 91.1217 144.861 89.2963 142.748C88.7353 142.099 88.3844 141.544 88.0655 141.187C87.8927 140.994 87.726 140.99 87.5 140.71C87.4605 140.66 87.5173 140.551 87.0869 140.037C86.0161 138.758 83.1246 135.769 82.5939 134.835C78.7964 130.582 74.9988 126.328 71.2013 122.075C71.1416 121.936 71.0819 121.798 71.0223 121.66C70.1264 121.005 67.3989 117.701 66.009 116.143C64.2427 114.162 62.1055 111.804 60.2496 109.739C59.6057 109.025 59.0552 108.302 58.6092 107.632C58.2608 107.107 58.0555 106.629 57.7718 106.109C57.6498 105.885 57.4262 105.641 57.3094 105.401C56.7637 104.286 56.271 102.941 55.9459 101.522C55.475 99.5167 55.3703 97.3793 55.4989 95.6229C55.5776 94.4781 55.7582 93.3517 56.0336 92.2566C57.5519 86.2048 59.0312 80.3427 60.5905 74.1122C63.3623 63.0364 66.1054 51.9832 68.8459 40.9523C69.1902 39.6002 69.1449 38.1444 68.7159 36.8098C68.2901 35.4736 67.4819 34.2635 66.4123 33.359C65.3448 32.4514 64.0196 31.853 62.6346 31.6519C61.2496 31.447 59.8096 31.6404 58.5289 32.2024C48.8977 36.3881 39.2728 40.5601 29.647 44.6999C29.3294 44.8364 29.3051 44.7368 29.059 44.8424C27.6056 45.4656 24.3976 46.9438 22.7566 47.6485C21.4491 48.2101 19.3148 48.9646 18.9272 49.3019C23.6606 47.5116 28.5555 45.3754 33.4118 43.347C33.7571 43.2028 33.8379 43.2725 33.8809 43.2559C34.6761 42.9483 34.1298 43.0404 35.2614 42.5445C35.6396 42.3787 39.262 41.1465 38.7243 41.0462C39.6112 40.7958 45.5452 38.2961 46.6695 37.7658C47.011 37.6047 46.7299 37.6276 46.7968 37.5937C47.0874 37.4463 47.2717 37.5025 47.5398 37.3901C48.2541 37.0896 50.0227 36.2145 50.3667 36.0665C51.1579 35.7255 53.569 34.7934 54.6038 34.3199C55.5521 33.8859 55.3212 33.8438 56.144 33.4749C56.7925 33.1845 56.1256 33.5924 57.5949 32.993C57.8206 32.9009 58.216 32.7255 58.6724 32.5194C59.9898 31.8618 61.9462 31.8068 62.5909 31.947C62.6048 31.949 62.6181 31.951 62.6308 31.9529C63.5192 32.0933 64.4679 32.4679 65.4938 33.1374C65.6988 33.2722 65.9307 33.4395 66.172 33.6416C67.0479 34.3512 67.9781 35.5966 68.3939 36.9123C68.7133 37.8655 68.7839 38.8107 68.7556 39.4693C68.7519 39.5767 68.8349 39.851 68.794 40.1206C68.7017 40.6688 68.6064 40.4887 68.5012 40.8731C68.502 40.8695 68.501 40.8727 68.5 40.876C68.4121 41.1746 67.1164 46.4034 66.8924 47.2906C66.7383 47.9021 66.7047 48.3426 66.6193 48.6805C66.5521 48.9456 66.4438 48.9486 66.3748 49.2189C66.3538 49.3027 66.2628 50.0378 66.0821 50.7497C65.9112 51.4223 65.1865 53.9573 65.1115 54.2532C65.0628 54.4459 65.1877 54.2526 65.043 54.8221C64.911 55.3411 64.7321 55.6588 64.6564 55.9546C64.4811 56.6408 64.3681 57.4287 64.1857 58.1577C63.6611 60.2533 63.5725 60.1165 63.5372 60.2413C63.4394 60.5872 63.5103 60.7535 63.4837 60.8685C63.3714 61.3538 63.094 62.5428 62.9901 62.9745C62.8607 63.5122 62.703 63.7142 62.5597 64.2841C62.4532 64.7089 62.3363 65.5914 62.098 66.5617C61.5613 68.7493 60.9281 71.352 60.3862 73.4967C60.2248 74.1362 60.1082 74.2113 60.0568 74.4063C59.7864 75.4309 59.7448 76.0321 59.6699 76.3252C59.1358 78.4154 58.0384 82.1077 57.5377 84.0461C57.3339 84.8354 56.5401 88.3157 56.037 90.2652C55.9796 90.4883 55.96 90.2611 55.9089 90.5125C55.7868 91.114 55.9473 91.0956 55.8672 91.3962C55.8323 91.5256 55.6962 91.7877 55.5858 92.1429C55.5732 92.1828 55.5614 92.2231 55.5503 92.2645C55.0188 94.2836 55.0279 95.7389 55.0042 96.6823C54.9728 98.3374 55.1517 100.003 55.5375 101.622C56.2765 104.741 57.7994 107.671 59.8924 110.054C62.931 113.522 65.9193 116.927 68.7883 120.189C69.4713 120.965 70.3871 121.868 71.3544 123.096C71.3509 123.163 71.3474 123.23 71.344 123.297C71.4147 123.308 71.4855 123.318 71.5563 123.329C72.7449 124.638 73.2316 125.1 74.3821 126.493C74.4812 126.613 74.6344 127.111 75.0286 127.155C76.0672 128.624 75.5638 127.76 76.4557 128.743C77.3475 129.727 78.1565 130.734 78.9981 131.708C79.3933 132.301 77.2693 130.226 77.1422 130.081C76.9371 129.847 76.8228 129.517 76.63 129.288C76.0591 128.609 75.4129 128.035 75.37 127.808C74.518 127.031 75.5088 128.06 75.3296 128.027C74.8584 127.422 74.3873 126.818 73.9161 126.213C73.3711 126.174 70.9492 122.674 70.9249 123.087C70.7462 122.796 70.5676 122.506 70.3889 122.215C69.1391 121.351 68.7586 120.53 67.5391 118.983C67.5979 119.121 67.6567 119.258 67.7154 119.395C67.6742 119.378 66.4697 118.126 67.0298 118.46C65.6556 117.299 66.0328 117.066 64.7406 116.079C64.0834 115.395 64.5979 115.701 63.4732 114.431C62.8069 113.678 61.9094 112.806 61.1613 111.968C60.9892 111.774 60.9944 111.62 60.8421 111.447C60.6898 111.274 60.5374 111.259 60.3509 111.052C60.1306 110.807 59.8927 110.503 59.6839 110.238C59.538 110.052 59.4114 109.884 59.3172 109.776C59.1216 109.548 58.7744 109.273 58.3365 108.689C56.869 106.605 57.4546 107.148 57.2749 106.791C57.1089 106.394 56.8012 106.206 56.4527 105.417C56.4186 105.338 56.6091 105.495 56.4889 105.243C56.3953 105.038 56.2329 104.986 55.935 104.296C55.8751 104.158 55.4114 102.99 55.1037 101.727C54.786 100.487 54.6324 99.17 54.6031 98.8204C54.463 97.7373 54.6114 95.3181 54.7998 94.2164C54.8583 93.7902 54.843 93.3189 54.937 92.8678C54.9903 92.6111 55.0544 92.3291 55.1305 92.0295C55.5189 90.4938 56.0291 88.4847 56.4471 86.8338C56.9018 85.0385 57.8939 81.9357 57.959 80.9064C58.568 78.3782 58.8769 77.8045 58.9267 77.6149C59.0615 77.1023 59.0183 76.8384 59.1761 76.189C61.222 67.7785 64.0629 56.7401 66.049 48.7869C66.717 46.1112 67.3848 43.4331 68.0527 40.7533C68.3607 39.5463 68.3211 38.248 67.9386 37.0573C67.5595 35.866 66.8391 34.7863 65.885 33.9791C64.9333 33.1697 63.7515 32.6355 62.5156 32.4559C61.2806 32.2731 59.996 32.4453 58.8532 32.9467C47.5698 37.8473 36.2605 42.7537 24.9489 47.6154C24.9207 47.6788 24.8924 47.7422 24.8641 47.8056C26.9462 46.9382 29.4114 45.961 31.4625 45.0944C34.2006 43.9371 38.1701 42.0072 40.2989 41.4365C39.4985 41.8134 38.1273 42.2722 38.2166 42.4135C39.6721 41.7969 41.1277 41.1803 42.5832 40.5636C42.5097 40.5123 42.4361 40.461 42.3625 40.4097C43.8686 39.7342 45.4246 39.0794 46.9404 38.412C47.2037 38.2962 46.9892 38.3135 47.219 38.2137C47.4762 38.1022 47.3298 38.2423 47.3782 38.222C48.0287 37.9414 48.1967 37.7911 48.2764 37.7577C48.4811 37.6723 48.3498 37.8031 48.9442 37.5667C50.0471 37.1284 50.7552 36.6258 50.6187 37.0121C50.9702 36.8601 51.3217 36.7081 51.6732 36.5561C51.7317 36.4417 51.7903 36.3272 51.8488 36.2128C54.1419 35.5809 54.909 34.6181 56.2862 34.5232C56.6523 34.2884 57.0184 34.0536 57.3845 33.8188C57.639 33.7978 57.8936 33.7769 58.1481 33.7559C58.1635 33.6728 58.1789 33.5896 58.1943 33.5065C58.4492 33.403 58.7052 33.2969 58.9619 33.1888C60.0511 32.7218 61.2901 32.5447 62.4779 32.7107C63.6965 32.8754 64.848 33.402 65.7315 34.1596C65.7804 34.2014 65.8285 34.2437 65.8759 34.2867C67.0456 35.4394 67.2592 35.9895 67.6806 37.1394C67.7293 37.293 67.7763 37.4597 67.8195 37.6437C68.1443 39.4411 67.9041 39.4617 67.9007 39.3852C67.8235 39.3055 67.8833 39.1947 67.5214 40.6009C67.6416 40.4756 67.758 40.3428 67.8698 40.2027C67.8517 40.3668 67.8272 40.5305 67.7964 40.6934C67.7498 40.9662 67.7022 41.2431 67.6545 41.52C67.5157 41.785 67.3769 42.05 67.238 42.3151C67.2773 43.6551 66.7889 44.3943 66.7461 44.5647C66.7122 44.7025 66.8062 45.2286 66.2547 46.6645C66.6994 46.1232 65.9731 47.7947 65.9363 47.934C65.9018 48.0665 65.5409 49.7806 65.3653 50.4691C65.2273 51.0106 64.8747 52.1513 64.6753 52.9593C64.4992 53.6727 64.616 53.6252 64.604 53.6775C64.3922 54.5568 64.4534 53.9878 64.2906 54.6211C64.1277 55.2543 64.0884 55.7675 64.0466 55.9025C64.0253 55.9703 63.9911 55.717 63.9032 56.03C63.6666 56.8706 63.3631 58.4218 63.1176 59.3904C63.0307 59.7339 62.8441 60.1473 62.7458 60.5293C62.5952 61.1151 62.63 61.4152 62.5415 61.7552C62.5104 61.8734 62.1606 62.59 61.9493 63.5367C61.9094 63.7169 62.116 64.3274 61.4613 64.9054C61.5153 64.9762 61.5692 65.047 61.6232 65.1178C60.9992 68.314 60.2308 69.0542 60.3655 70.5788C59.7368 72.8554 59.9416 71.2356 59.8495 71.4798C59.7904 71.6376 59.6552 72.3974 59.6316 72.4787C59.5894 72.6225 59.5348 72.5823 59.4952 72.7416C58.7742 75.664 59.2142 74.3966 59.0551 75.3395C58.6768 77.5817 57.862 79.2007 58.9366 75.4052C58.9027 75.3967 58.8688 75.3882 58.8348 75.3797C58.6311 76.3295 58.0161 78.7161 58.0442 77.8747C58.0662 77.2121 59.5771 71.5631 58.5813 74.7273C58.3553 75.4457 58.388 75.8553 57.8324 77.0583C57.61 77.8901 57.8892 78.0881 57.4814 79.1878C57.636 79.029 57.7905 78.8701 57.9451 78.7112C57.699 80.2887 57.0331 82.1439 56.7965 83.3436C56.7161 83.7513 56.8671 85.3303 56.4373 84.8632C56.2997 85.5479 55.4055 88.7114 55.3031 89.3152C55.2785 89.4604 55.5059 89.7146 54.8934 91.7517C54.8599 91.8158 54.8264 91.8799 54.793 91.944C54.7568 92.0117 54.7211 92.0792 54.6858 92.1469C54.701 92.0638 54.7142 91.991 54.7253 91.9276C54.8315 91.3302 54.7347 91.5359 54.5871 91.8924C54.3914 92.3481 54.1459 93.0847 54.103 92.5684C54.1747 92.4586 54.2791 92.1674 54.3965 91.8449C54.5802 91.3336 54.773 90.7358 54.8452 90.5988C55.0494 90.2134 54.8729 91.4695 55.2284 89.9016C55.0404 88.8099 54.5356 91.6699 54.2308 91.137C54.1945 91.3739 54.1593 91.586 54.1253 91.7766C53.8791 93.2542 53.7371 93.4407 53.6591 93.8547C53.3539 95.856 53.381 97.1428 53.4979 99.0479C53.5813 99.499 53.5475 96.0614 53.6121 95.6393C53.8479 97.2047 53.9575 94.5507 54.0116 93.4141C54.1198 93.3365 54.2284 93.2602 54.3375 93.1853C54.0243 94.6011 53.8862 96.0301 53.9978 97.4651C53.9651 97.5594 53.933 97.6542 53.9016 97.7494C53.8367 97.4279 53.7791 97.1035 53.7293 96.7768C53.6577 97.9901 53.8878 97.2511 53.7635 98.8747C53.873 98.915 53.9826 98.9545 54.0923 98.9932C54.1653 99.959 54.3061 100.921 54.514 101.87C54.6337 102.417 54.7755 102.959 54.9392 103.495C55.3328 104.209 56.5111 106.878 56.0505 106.517C56.594 107.585 56.0242 106.217 56.6173 107.164C56.8753 107.576 57.3878 108.369 57.462 108.602C57.1815 108.672 56.39 107.47 56.0347 107.162C56.0609 107.338 57.5104 109.674 58.7597 111.053C59.4779 111.891 59.9695 112.517 59.7358 112.423C60.0684 112.855 60.0206 112.564 60.7002 113.273C62.6039 115.262 65.1899 118.663 66.9471 120.066C65.3889 117.972 64.7079 117.547 63.3825 116.058C62.7805 115.382 59.9966 112.257 58.9243 110.908C58.4991 110.368 58.3677 110.11 58.7392 110.435C58.5338 110.246 58.3316 110.052 58.1329 109.853C58.0248 109.58 57.9232 109.307 57.828 109.033C58.2505 109.606 58.7021 110.156 59.1805 110.682C59.2314 110.738 59.2821 110.794 59.3328 110.85C59.3998 111.049 59.4667 111.249 59.5337 111.448C59.6366 111.477 59.7396 111.505 59.8426 111.534C60.0775 111.782 60.3124 112.031 60.5473 112.28C60.4311 112.254 60.3149 112.229 60.1988 112.203C60.5384 112.606 60.8781 113.009 61.2178 113.413C61.1942 113.244 61.1707 113.076 61.1471 112.907C62.8069 114.753 62.2067 114.162 62.9859 115.31C63.6524 116.093 62.639 114.671 64.1119 116.272C65.8246 118.133 64.5122 117.078 66.7246 119.494C66.7909 119.498 66.8572 119.503 66.9235 119.507C67.3648 120.078 67.806 120.649 68.2473 121.22C68.228 121.11 68.2086 121 68.1893 120.89C69.1556 122.02 70.5938 123.482 70.7484 124.003C69.8343 122.8 69.5452 123.075 69.7494 123.417C70.1716 124.123 78.179 132.989 79.7183 134.719C81.6865 136.931 83.0712 138.694 85.0074 140.592C83.9157 139.111 79.5533 134.365 78.8288 133.376C78.757 133.278 79.0535 133.062 78.2308 132.75C76.6254 130.825 74.5566 128.656 72.4945 126.3C72.6366 126.302 72.7788 126.304 72.9209 126.307C74.026 127.898 75.5727 128.908 75.1005 128.99C75.3538 129.278 75.6072 129.565 75.8605 129.852C75.9133 129.805 75.9661 129.759 76.0189 129.712C76.4008 130.145 76.7827 130.578 77.1646 131.011C77.1118 131.058 77.059 131.104 77.0062 131.151C77.3225 131.509 77.6388 131.868 77.9551 132.227C78.0407 132.217 78.1263 132.208 78.2119 132.199C79.0497 133.369 82.5711 136.772 80.8372 135.44C81.2821 135.944 81.7269 136.449 82.1718 136.953C82.2089 136.917 82.2461 136.882 82.2832 136.846C82.4797 137.058 82.6761 137.27 82.8725 137.483C82.7746 137.442 82.6767 137.401 82.5788 137.361C83.5178 138.299 84.1647 139.403 84.861 139.949C84.5078 139.495 84.1546 139.042 83.8015 138.588C84.4793 139.458 85.9243 140.886 86.0446 141.022C86.4109 141.436 86.5258 141.724 86.9181 142.177C87.2725 142.585 87.2832 142.476 87.3478 142.554C89.2167 144.795 88.1566 144.248 89.4419 144.931C89.4854 145.086 89.5288 145.241 89.5722 145.396C89.7437 145.502 89.9152 145.608 90.0866 145.714C90.6525 146.364 91.2183 147.013 91.7841 147.663C91.6596 147.39 91.5351 147.116 91.4107 146.843C92.2943 147.786 92.5612 148.353 92.6409 148.45C92.8674 148.722 93.0571 148.771 93.1296 148.853C93.632 149.424 94.016 149.864 94.3097 150.206C95.292 151.431 95.2041 151.709 95.2136 151.839C95.171 151.988 95.199 152.096 95.2963 153.328C95.3098 153.365 95.3223 153.4 95.3341 153.432C95.5268 154 95.5994 153.69 95.6625 153.376C95.6875 153.248 95.7084 153.124 95.7441 153.071C95.7603 153.17 95.7735 153.264 95.7847 153.355C95.8853 154.585 95.9235 155.109 95.4981 156.476C95.4602 156.582 95.412 156.688 95.3593 156.788C95.2259 157.043 95.0625 157.262 94.9751 157.416C94.8766 157.604 94.5902 158.232 94.229 158.619C93.9649 158.912 93.6234 159.216 93.2202 159.49C92.7308 159.824 92.1505 160.111 91.5327 160.316C91.2161 160.422 90.6652 160.584 89.976 160.638C88.8267 160.738 87.285 160.874 86.0852 160.958C85.3102 161.012 85.4845 160.92 85.2844 160.934C85.2011 160.94 84.6037 161.076 84.1066 161.111C80.0523 161.394 75.893 161.622 71.8186 161.906C68.9481 162.106 66.0365 162.384 63.1596 162.576C62.5474 162.617 62.8667 162.525 62.5993 162.541C62.5074 162.547 62.4053 162.676 61.4555 162.692C61.1123 162.698 61.4997 162.586 61.1632 162.606C60.9994 162.615 60.9373 162.726 59.9825 162.816C58.2473 162.981 57.3032 162.904 57.1483 162.919C56.8563 162.948 56.9479 163.03 56.5604 163.06C54.6653 163.207 53.0833 163.331 51.3916 163.456C50.6017 163.514 45.1546 163.909 44.8543 163.914C44.1825 163.926 44.7928 163.699 43.9348 163.765C43.6975 163.828 43.4603 163.891 43.223 163.954C43.6075 163.963 43.992 163.972 44.3765 163.98C43.3207 163.994 42.134 164.16 41.3551 164.211C41.2111 164.221 39.8814 164.229 39.2067 164.285C39.4914 164.231 39.7761 164.176 40.0608 164.122C39.9572 164.099 39.8536 164.077 39.75 164.055C38.9103 164.141 38.0391 164.211 37.1665 164.274C36.6584 164.31 36.1523 164.361 35.6543 164.43C35.1782 164.499 35.3275 164.402 34.8455 164.484C32.0522 165.092 32.8643 165.161 30.0913 165.656C30.9403 165.25 34.2072 164.23 34.718 164.225C35.0662 164.161 36.4461 164.457 35.9002 164.039C36.5668 163.956 36.9353 163.95 37.1439 163.958C37.813 163.984 36.8985 164.191 38.8959 164.008C38.8391 163.952 38.7823 163.897 38.7254 163.842C39.6447 163.741 40.3236 163.664 40.8909 163.729C41.059 163.429 44.2029 163.38 45.9195 163.242C48.4003 163.042 51.2003 162.778 53.6591 162.595C54.5062 162.532 54.9939 162.611 55.1002 162.604C55.2555 162.592 55.6853 162.463 55.9954 162.441C57.1533 162.358 60.6881 162.28 61.5456 161.946C54.6548 162.424 47.7641 162.901 40.8733 163.379C41.396 163.423 39.1238 163.618 37.1317 163.771C35.8053 163.867 34.6248 164.104 34.487 164.128C34.1694 164.186 34.417 164.04 34.3217 164.053C33.608 164.157 33.0505 164.452 32.8336 164.513C32.6677 164.561 32.3118 164.592 31.7272 164.791C31.6201 164.828 31.6127 164.902 31.4985 164.943C30.7425 165.211 30.0106 165.517 29.2872 165.87C29.243 165.891 29.0162 165.892 28.8343 165.986C28.6519 166.079 28.5209 166.263 28.4761 166.287C28.1989 166.437 27.8214 166.634 27.4517 166.844C27.0661 167.061 26.6891 167.292 26.4319 167.472C26.2575 167.594 26.4198 167.568 26.2257 167.706C25.6363 168.138 25.7378 167.875 25.0525 168.473C24.8265 168.678 24.9089 168.745 24.4651 169.118C24.1533 169.386 24.0555 169.216 24.0022 169.255C23.9204 169.305 23.0176 170.417 22.6236 170.691C23.0581 169.699 21.8667 171.526 22.0627 171.543C21.6805 171.959 21.3141 172.392 20.9647 172.839C20.8851 173.019 20.8082 173.2 20.7341 173.381C20.5621 173.61 20.4055 173.833 20.2609 174.052C19.2456 175.591 18.6305 176.765 17.5837 178.449C17.5258 178.542 16.4845 180.145 16.4867 180.042C16.9944 179.014 17.5719 178.031 18.0824 177.483C18.4328 176.291 18.6528 176.397 19.6082 174.703C19.9279 174.136 19.8801 174.054 19.9173 173.989C19.9371 173.955 19.957 173.92 19.9771 173.884C21.1661 171.613 23.9657 168.675 25.4873 167.905C25.8219 167.555 24.4609 168.607 24.9516 168.151C25.0489 168.059 26.0252 167.235 27.2353 166.492C29.3068 165.166 32.0643 164.293 30.464 165.08C30.729 164.963 30.9966 164.851 31.2664 164.745C31.4442 164.386 32.8633 164.016 32.7744 164.322C32.891 164.234 33.0088 164.146 33.128 164.059C33.3789 163.947 33.6856 163.845 34.1245 163.738C34.5881 163.625 35.7022 163.401 37.0997 163.308C40.7359 163.06 46.1963 162.722 46.5874 162.667C46.5954 162.604 46.6034 162.541 46.6114 162.478C43.445 162.648 40.3526 162.924 37.0872 163.13C35.6754 163.218 34.2394 163.429 32.778 163.774C32.9341 163.792 33.0894 163.811 33.244 163.832C31.297 164.24 29.3957 164.92 27.6129 165.852C29.376 164.653 32.5984 163.374 34.8431 163.133C35.239 163.083 34.9638 163.211 35.0556 163.206C35.2948 163.196 35.5255 163.006 36.3818 162.902C36.5624 162.881 36.8016 162.862 37.0685 162.849C38.0385 162.802 39.3825 162.771 39.5342 162.758C39.905 162.726 40.8955 162.496 41.5275 162.454C42.3581 162.399 41.8084 162.538 41.9753 162.528C42.6654 162.49 43.2802 162.398 43.8208 162.368C44.6234 162.323 46.3015 162.383 46.844 162.087C46.2704 162.115 45.6967 162.143 45.1231 162.17C48.2229 161.863 50.6744 162.024 53.7171 161.558C54.3908 161.198 51.8651 161.415 53.9938 161.134C53.6059 161.165 53.218 161.196 52.8302 161.228C52.7437 161.299 52.6572 161.371 52.5707 161.443C51.8988 161.442 51.2269 161.442 50.555 161.442C50.7498 161.487 50.9447 161.532 51.1395 161.577C48.7719 161.785 46.3822 162.011 45.5329 161.755C45.4894 161.834 45.4458 161.913 45.4022 161.992C43.1949 162.053 39.913 162.602 40.5011 162.138C40.3985 162.168 40.2958 162.197 40.1932 162.227C38.8568 162.233 39.4371 162.368 38.9385 162.422C38.7961 162.438 36.2039 162.527 37.3413 162.322C37.2321 162.326 37.1292 162.33 37.0321 162.334C34.7684 162.487 35.5401 162.81 34.8578 162.919C33.1423 162.952 30.3578 164.253 31.47 163.546C31.2271 163.615 30.9852 163.688 30.7443 163.765C30.0554 164.28 29.2083 164.345 28.3551 164.672C28.0791 164.805 27.8058 164.944 27.5353 165.089C27.3958 165.26 27.2596 165.433 27.1266 165.607C27.0041 165.659 26.8904 165.71 26.7847 165.761C24.616 166.876 25.8359 167.21 24.321 167.294C24.4467 167.123 24.5753 166.954 24.7067 166.786C25.0801 166.468 25.4643 166.161 25.8587 165.867C24.1976 166.949 22.6756 168.249 21.3446 169.726C20.1183 170.881 19.4704 171.918 18.7367 173.15C18.3909 173.738 18.0026 174.368 17.4942 175.096C17.3895 175.32 17.2847 175.544 17.18 175.767C17.1333 175.448 17.6448 174.643 16.6615 176.126C16.4611 176.183 17.0564 175.141 17.4296 174.726C17.5198 174.626 17.0427 175.648 17.6884 174.564C18.1206 173.839 17.2158 175.041 18.4867 173.002C18.5088 172.967 18.5315 172.93 18.555 172.893C18.5205 172.923 18.486 172.952 18.4516 172.982C18.4057 173.019 18.3598 173.056 18.3138 173.094C18.3424 173.046 18.3709 172.998 18.3994 172.951C18.5238 172.742 18.6514 172.535 18.7823 172.331C18.9953 172.146 19.2107 171.966 19.4284 171.792C19.7274 171.166 19.8002 170.728 20.8544 169.54C20.6151 169.901 21.1076 169.555 21.6363 168.988C21.5936 168.948 21.5508 168.908 21.5081 168.867C22.8109 167.485 22.46 168.071 23.5567 166.933C23.7077 166.868 23.8589 166.804 24.0104 166.742C24.3519 166.296 25.5142 165.331 26.2612 164.911C26.6749 164.671 26.9386 164.581 26.8117 164.773C27.425 164.067 29.19 163.361 29.9138 163.332C29.9412 163.258 29.9689 163.184 29.9972 163.111C30.3361 162.965 30.6787 162.826 31.0247 162.696C31.2311 162.663 31.4375 162.633 31.6439 162.606C31.8823 162.495 32.1232 162.388 32.3664 162.284C32.5342 162.299 32.7014 162.315 32.8678 162.333C33.2556 162.163 33.6498 162.003 34.0498 161.853C34.3119 161.849 34.5732 161.85 34.8337 161.855C34.8364 161.768 35.9967 161.545 36.9762 161.495C37.4 161.469 37.7858 161.457 37.9977 161.468C38.1896 161.419 38.3814 161.371 38.5733 161.322C38.6723 161.373 38.7712 161.424 38.8702 161.476C39.0116 161.419 39.1531 161.363 39.2945 161.307C39.631 161.33 39.9674 161.353 40.3038 161.376C41.6433 160.999 41.7043 161.244 42.0146 161.221C42.5896 161.178 44.5365 160.865 44.8646 160.851C45.1924 160.838 45.3574 160.928 45.6221 160.92C49.9864 160.778 48.178 160.629 49.0483 160.525C49.5179 160.469 49.8579 160.541 50.2738 160.501C50.9852 160.434 54.5716 160.06 54.7793 160.057C55.0817 160.054 54.4037 160.551 55.3746 160.368C55.3905 160.125 57.5007 160.223 56.499 159.955C57.3631 159.925 58.2273 159.895 59.0915 159.864C58.974 159.586 60.0498 159.696 61.2067 159.6C62.8462 159.464 66.5276 159.021 66.4128 159.322C66.8012 159.228 67.1896 159.133 67.578 159.039C70.2737 158.945 72.9048 158.665 75.5738 158.477C80.1666 158.152 84.9871 157.837 89.765 157.534C89.7671 157.534 89.7734 157.534 89.7755 157.533C90.3586 157.503 90.9319 157.304 91.4094 156.968C91.8921 156.63 92.2753 156.155 92.5037 155.615C92.7369 155.069 92.81 154.458 92.7176 153.877C92.6794 153.634 92.6132 153.397 92.5213 153.171C92.433 152.964 92.5305 152.951 92.4529 152.802C92.365 152.64 92.2293 152.432 92.0374 152.221C90.8602 150.905 89.0645 148.928 88.0235 147.723C87.6019 147.234 87.4643 146.937 87.3322 146.781C86.8843 146.25 86.9004 146.455 86.6916 146.213C86.3622 145.831 84.6833 143.755 84.0845 143.058C83.788 142.713 83.3586 142.374 83.029 141.955C83.0005 141.919 83.132 141.915 83.1077 141.885C82.4748 141.149 82.7957 141.645 82.5819 141.395C81.0574 139.618 79.4031 137.739 77.7381 135.82C77.3248 135.344 76.7394 134.573 76.3862 134.162C76.2513 134.006 76.4391 134.334 75.9715 133.795C75.8114 133.61 75.8306 133.481 75.6529 133.27C74.8864 132.36 74.3834 132.273 73.8999 131.337C72.582 129.868 70.2484 127.347 69.0561 125.998C68.7742 125.679 68.681 125.484 68.4118 125.181C68.2207 124.965 67.8172 124.645 67.5192 124.309C67.2211 123.973 66.8169 123.384 66.2429 122.738C65.6386 122.058 64.8517 121.243 64.7162 121.089C64.5524 120.903 64.558 120.745 64.3932 120.56C63.8951 120 62.488 118.568 61.841 117.852C61.1459 117.083 60.7739 116.581 60.5387 116.316C60.3206 116.071 59.9982 115.845 59.8984 115.733C59.7432 115.559 59.7876 115.446 59.5911 115.225C59.2697 114.863 58.8888 114.534 58.4075 113.991C57.9714 113.499 57.5359 113.008 57.101 112.517C54.567 109.661 52.765 106.188 51.8797 102.511C50.98 98.8023 51.0134 94.8931 51.9518 91.2302C53.2564 86.1138 54.5627 81.0252 55.8681 75.9536C56.2214 74.5813 56.3428 73.7862 56.8843 71.7692C57.1039 70.9514 57.1251 71.3245 57.265 70.6802C57.3273 70.393 57.2242 70.4437 57.3105 70.0824C57.6922 68.4854 58.2365 66.6497 58.4082 65.9593C58.4764 65.6855 58.4584 65.3485 58.5978 64.787C59.6358 60.6019 60.9039 55.6606 62.0161 51.1556C62.6049 48.7702 63.4607 45.15 64.1402 42.4131C64.3445 41.5904 64.5509 40.761 64.7589 39.9272C64.9127 39.322 64.8945 38.6785 64.7047 38.0867C64.5176 37.4973 64.1613 36.9615 63.6892 36.5609C63.2171 36.158 62.6307 35.8926 62.0203 35.8026C61.4038 35.71 60.7656 35.7965 60.2021 36.0424C57.4181 37.2445 54.7156 38.412 52.1907 39.5081C42.3484 43.7803 32.5842 48.1032 22.7141 52.2531C27.407 50.4857 33.6595 47.7598 38.7881 45.5703C45.8107 42.5718 53.0293 39.4361 60.2942 36.2695C60.8244 36.0346 61.4158 35.9524 61.986 36.0345C62.5558 36.1149 63.1027 36.3589 63.5443 36.7313C63.9868 37.1024 64.3225 37.6006 64.5004 38.1518C64.6799 38.7027 64.7008 39.3049 64.5594 39.8681C63.4014 44.542 62.2454 49.1938 61.0907 53.7913C59.6918 59.3617 57.9354 66.3871 56.3517 72.4725C56.28 72.7485 56.2104 73.3404 56.0526 73.9363C56.0189 74.0628 55.4885 75.6038 55.3541 76.1341C55.7207 75.6915 54.985 77.7165 54.8296 78.3605C54.6339 79.1728 54.3302 80.8931 53.7866 82.7727C53.2934 84.4782 53.3199 83.9804 53.2903 84.0739C53.1001 84.6732 53.196 84.923 53.0941 85.3931C52.9117 86.2313 52.3243 88.5661 51.6626 91.1589C50.6357 94.8673 50.8911 99.2669 51.2407 100.986C51.3806 101.781 51.3001 101.821 51.3357 102.001C51.3737 102.178 51.4331 102.38 51.5044 102.602C51.6232 102.972 51.7751 103.397 51.9145 103.859C52.3059 105.194 52.8552 106.71 53.1984 107.4C53.8507 108.802 55.3439 111.085 56.8651 112.726C57.1232 113.011 57.3704 113.287 57.5986 113.545C57.9988 113.997 57.8981 114.037 58.0794 114.242C58.8774 115.144 61.0421 117.417 62.0318 118.537C63.6394 120.357 65.2424 122.273 66.9004 124.102C66.9699 124.25 67.0394 124.397 67.1088 124.544C67.3078 124.698 67.5067 124.851 67.7057 125.005C70.4395 128.159 73.3267 131.277 76.0674 134.394C76.3832 134.753 77.8842 136.586 78.1451 136.882C78.3623 137.129 78.6603 137.297 78.97 137.673C79.4038 138.199 78.8189 137.859 79.6017 138.654C79.8122 138.868 79.6888 138.59 80.1082 139.022C80.2468 139.165 82.8265 142.033 82.959 142.193C83.1795 142.459 83.2363 142.82 83.2921 142.89C83.5822 143.252 83.6821 143.137 83.8982 143.362C84.5361 144.023 85.2534 144.989 85.3537 145.099C86.5674 146.433 88.8875 148.881 90.086 150.348C90.2517 150.55 90.1469 150.601 90.1745 150.638C90.3533 150.876 90.5709 150.929 90.7597 151.139C91.0816 151.497 91.4531 151.926 91.842 152.383C92.2154 152.821 92.447 153.406 92.5072 153.913C92.5268 154.063 92.5343 154.207 92.5341 154.338C92.5352 154.434 92.5918 154.643 92.5606 154.818C92.4668 155.309 92.3456 155.444 92.3065 155.481C92.261 155.516 92.2607 155.447 92.2487 155.471C92.2437 155.481 92.2391 155.493 92.235 155.505C92.1923 155.628 92.1862 155.871 92.0041 156.14C91.8535 156.362 91.6227 156.622 91.318 156.841C90.8882 157.156 90.3058 157.364 89.7662 157.39C89.7639 157.39 89.7572 157.39 89.755 157.39C89.1006 157.433 88.4916 157.472 87.994 157.504C86.6804 157.589 86.6916 157.463 86.6052 157.467C86.4208 157.475 85.916 157.609 85.0523 157.681C83.3904 157.818 83.5731 157.707 82.8897 157.759C82.8322 157.763 82.9387 157.851 82.1808 157.914C80.7164 158.034 77.4177 158.169 75.8493 158.282C75.2459 158.326 75.1111 158.428 74.4935 158.472C73.5142 158.543 71.2966 158.597 71.1223 158.609C71.0735 158.613 70.9712 158.726 70.6839 158.746C70.3678 158.768 70.0531 158.735 69.8176 158.752C68.4759 158.846 66.1771 159.191 66.7932 158.769C66.3698 158.892 65.9463 159.015 65.5228 159.138C62.7112 159.314 59.9837 159.541 57.2006 159.753C56.5746 159.8 56.0468 159.765 55.5185 159.805C54.9903 159.845 52.6669 160.125 52.2774 160.154C51.5823 160.206 47.6316 160.493 47.1395 160.518C46.1786 160.569 45.2367 160.477 44.848 160.535C44.5365 160.581 44.8323 160.649 44.2364 160.715C43.2048 160.83 41.4389 160.839 41.123 160.862C40.9881 160.873 41.2455 160.924 39.982 161.016C39.3012 161.066 38.9303 161.016 38.6832 161.033C38.6064 161.039 38.7301 161.154 37.3809 161.231C37.2251 161.24 37.0841 161.245 36.9568 161.248C36.2611 161.268 35.9357 161.246 35.8459 161.255C35.6839 161.274 35.3071 161.416 34.6656 161.519C33.1595 161.722 30.4436 162.411 29.1167 163.017C28.8602 163.132 28.9884 163.187 27.9821 163.665C27.2678 164.019 27.3482 163.875 27.0823 164.014C26.8237 164.152 26.5129 164.378 26.1097 164.666C25.8588 164.845 25.5722 165.048 25.2397 165.272C24.2311 165.693 19.2835 170.21 18.0446 172.741C17.7398 173.234 17.5343 173.563 17.4849 173.634C17.3095 173.888 17.1262 174.195 17.003 174.3C17.0261 174.161 17.0491 174.023 17.0722 173.885C17.9158 172.808 17.4622 173.176 17.6343 172.859C17.6707 172.792 17.7235 172.7 17.7878 172.589C18.1981 171.849 19.1728 170.484 19.4321 170.107C19.5387 169.948 19.1735 170.221 19.7783 169.385C20.4428 168.494 20.9301 168.279 21.0468 167.778C22.3509 166.863 23.3155 165.675 21.8863 166.821C21.4443 167.169 18.965 169.504 17.3156 172.309C16.1443 174.231 15.0154 176.091 14.6034 176.773C13.8514 178.018 12.5311 180.402 11.6029 181.931C11.0571 182.83 9.72669 185.051 9.66208 184.886C9.17162 185.68 9.79446 184.901 9.71136 185.08C9.53758 185.453 7.97131 187.91 7.69386 188.387C6.32476 190.736 4.71176 193.769 3.21463 195.952C3.24503 195.827 3.27544 195.702 3.30584 195.577C3.54894 195.031 5.03592 192.712 5.03974 192.352C2.98878 195.818 0.937802 199.284 -1.11317 202.749C-0.943459 202.763 -3.48907 207.06 -3.66878 207.228C-3.68784 207.115 -3.70691 207.002 -3.72597 206.888C-2.04662 204.603 -2.49522 204.631 -1.36021 203.101C-0.964866 202.438 -1.18877 202.576 -1.01516 202.237C0.713278 198.863 -0.768171 202.313 0.612947 199.764C0.0161097 200.424 1.16857 198.35 1.69058 197.423C1.80957 197.212 3.46667 194.501 3.65643 194.175C4.72248 192.342 6.49305 189.16 7.6491 187.397C8.50405 185.975 8.86038 185.125 9.60237 183.814C10.1656 182.818 10.0751 183.146 10.3502 182.683C10.9274 181.713 10.8838 181.255 11.5767 180.825C11.9261 180.142 12.2756 179.46 12.625 178.777C12.6754 178.807 12.7258 178.837 12.7762 178.867C13.0211 178.453 13.266 178.039 13.5108 177.625C13.5326 177.474 13.5544 177.322 13.5762 177.171C14.4222 175.898 14.2192 176.519 14.5072 176.358C14.6848 176.08 14.8625 175.802 15.0402 175.524C15.0606 175.24 15.0809 174.955 15.1013 174.671C15.6442 173.768 16.187 172.865 16.7299 171.963C16.9839 171.539 17.2504 171.123 17.5287 170.715C17.6398 170.654 17.7512 170.595 17.8627 170.537C17.8168 170.5 17.7709 170.464 17.725 170.428C19.3906 168.004 21.4833 165.872 23.8798 164.16C24.4266 163.568 20.6684 166.466 20.483 166.805C19.3723 167.808 17.3522 170.459 16.5275 171.843C16.2729 172.232 16.0943 172.468 16.0476 172.443C15.6487 173.422 14.0121 176.111 13.353 176.859C14.1197 175.586 14.8864 174.312 15.653 173.039C15.5685 173.044 15.484 173.05 15.3995 173.056C15.8556 172.498 16.1546 172.119 16.3922 171.763C16.8468 171.079 17.1279 170.48 17.8419 169.248C17.9179 169.303 17.9939 169.358 18.0698 169.412C18.7457 167.902 21.1451 166.291 20.9392 165.969C21.5833 165.413 22.2537 164.89 22.9469 164.402C24.0573 163.551 22.8291 164.131 24.9187 162.733C25.5754 162.32 26.5658 161.734 28.1383 161.072C28.5994 160.883 28.5415 161.013 29.2325 160.733C29.4333 160.667 30.5209 160.017 32.8369 159.495C33.1984 159.417 33.2441 159.498 33.6209 159.435C34.4869 159.276 36.2145 158.908 35.456 159.284C36.0353 159.228 36.4779 159.198 36.818 159.173C38.2234 159.067 37.5059 158.94 38.2469 158.811C38.8401 158.708 38.7316 158.885 39.2461 158.811C39.8828 158.719 39.4013 158.581 41.9692 158.482C41.6825 158.514 41.3958 158.545 41.1091 158.577C41.2569 158.613 41.4047 158.649 41.5526 158.685C43.0074 158.473 42.8804 158.645 43.5521 158.337C44.6233 158.379 45.5438 158.325 46.9963 158.203C49.818 157.966 48.3506 157.786 51.6005 157.94C52.1191 157.851 52.6377 157.762 53.1563 157.673C54.0226 157.724 53.3378 157.912 54.6211 157.851C53.5992 157.646 56.3098 157.559 56.7497 157.282C56.8017 157.337 56.8536 157.392 56.9056 157.447C57.1918 157.427 57.478 157.407 57.7642 157.388C57.7618 157.341 57.7595 157.294 57.7571 157.247C58.1407 157.255 58.5243 157.264 58.9079 157.273C59.1913 157.206 59.4747 157.14 59.7581 157.074C60.2362 157.139 60.7143 157.205 61.1924 157.27C61.4887 157.256 61.785 157.242 62.0814 157.228C61.9829 157.165 61.8844 157.102 61.7859 157.038C62.1678 157.035 62.5497 157.032 62.9316 157.029C62.4812 156.946 62.75 156.792 63.9341 156.713C64.9112 156.649 63.8274 156.964 65.921 156.719C66.0671 156.702 66.3146 156.513 68.298 156.349C70.6767 156.153 69.5287 156.356 69.9533 156.331C70.0367 156.326 70.758 156.19 71.4382 156.13C71.8242 156.097 72.2013 156.14 72.2523 156.136C72.4906 156.117 72.5533 156.014 72.8834 155.987C73.7217 155.921 74.8512 155.891 75.6726 155.829C76.046 155.801 76.3934 155.719 76.56 155.706C76.8185 155.688 77.1527 155.754 77.4141 155.735C78.3794 155.666 79.8243 155.271 80.301 155.648C81.203 155.208 83.1789 155.528 83.0191 155.286C84.5094 155.24 87.4746 154.946 89.5763 154.811C89.5809 154.811 89.5949 154.81 89.5995 154.81C89.7013 154.812 89.7953 154.812 89.8759 154.963C89.87 154.887 89.8603 154.838 89.8556 154.804C89.8261 154.667 89.9345 154.797 89.9666 154.757C90.0028 154.704 89.9263 154.687 89.9538 154.652C89.9695 154.631 89.9846 154.609 89.9985 154.586C90.0382 154.521 90.0676 154.442 90.0598 154.36C90.1195 154.371 90.1789 154.388 90.2371 154.411C90.2437 154.351 90.2231 154.323 90.1973 154.306C90.1536 154.279 90.0969 154.276 90.0533 154.21C89.9039 154.035 90.0294 154.061 90.1235 153.926C90.1169 153.933 90.1097 153.938 90.1021 153.942C90.0997 153.939 90.0922 153.931 90.0899 153.928C89.8397 153.823 88.2076 151.941 88.0431 151.727C87.9383 151.59 88.5786 152.029 87.3866 150.77C87.4055 150.88 87.4243 150.99 87.4432 151.099C86.981 150.455 85.4866 148.914 85.2607 148.628C85.157 148.497 84.919 147.515 84.0984 147.148C84.0769 147.035 84.0554 146.923 84.0339 146.81C83.3804 146.175 82.7269 145.541 82.0735 144.906C82.0564 144.728 82.0394 144.549 82.0223 144.371C81.8317 144.155 81.641 143.939 81.4504 143.723C81.5069 143.928 81.5634 144.133 81.6199 144.338C80.4743 142.976 78.9256 141.443 78.9192 140.959C78.6232 140.712 78.3272 140.465 78.0313 140.218C77.9457 139.962 77.8602 139.707 77.7746 139.452C76.5871 138.145 76.5153 138.17 75.6332 137.339C75.7258 137.32 75.8183 137.301 75.9108 137.283C75.2359 136.691 74.0808 135.543 73.2201 134.589C72.8111 134.136 72.202 133.275 72.0991 133.174C71.9947 133.072 70.7152 132.291 70.8998 131.92C69.3777 130.452 68.8937 129.641 68.3246 129.002C67.9548 128.587 67.7181 128.458 67.2957 127.993C66.6909 127.329 66.126 126.621 65.7782 126.236C65.579 126.016 65.4751 126.034 65.3377 125.883C64.6877 125.167 65.1313 125.531 64.4524 124.77C64.3894 124.7 63.8144 124.214 63.2694 123.575C62.9646 123.218 62.2533 122.225 62.1823 122.145C61.8663 121.79 61.9329 122.238 61.0714 120.831C61.0675 120.898 61.0636 120.964 61.0597 121.03C59.6407 119.601 59.5872 119.225 59.3294 118.911C59.296 118.871 58.9116 118.558 58.7262 118.331C58.4132 117.947 58.364 117.725 58.2952 117.639C58.0525 117.339 57.1561 116.396 56.674 115.688C56.5989 115.906 55.7332 115.104 55.0738 114.305C54.6163 113.759 54.2595 113.201 54.1852 112.895C53.7391 112.434 53.3083 111.955 52.8943 111.459C52.7823 111.184 52.6754 110.908 52.5737 110.632C52.4318 110.513 52.2908 110.393 52.1507 110.27C51.7858 109.398 51.4713 108.513 51.2075 107.619C51.0659 107.619 50.9242 107.618 50.7823 107.616C50.6891 107.37 50.5996 107.123 50.514 106.876C50.5312 106.648 50.5516 106.421 50.575 106.196C50.4413 105.901 50.3129 105.603 50.1901 105.303C50.0941 105.25 49.9983 105.198 49.9027 105.144C49.4806 104.01 49.8044 103.966 49.5778 103.07C49.4806 102.658 49.2717 102.069 48.9124 101.065C48.8883 100.542 48.88 100.019 48.8875 99.4986C48.5434 98.9427 48.6453 97.8246 48.6188 96.94C48.6017 96.3142 48.4828 96.3452 48.522 95.4882C48.5728 94.6311 48.6888 94.6725 48.693 94.606C48.763 93.9138 48.7392 93.3799 48.8372 92.8758C48.8533 92.8 49.0041 92.6285 49.1336 91.9928C49.2365 91.5021 49.2321 91.1449 49.3481 90.5755C49.3746 90.4401 49.4103 90.2871 49.4602 90.1123C49.5723 89.7188 49.7058 89.6305 49.8033 89.281C50.2689 87.616 50.1617 85.795 51.1063 84.6956C51.0977 84.3922 51.3341 82.2667 51.5708 81.3909C51.9396 80.0292 51.9309 80.5873 52.0899 80.0491C52.1129 79.9717 52.1757 79.5446 52.4711 78.3987C52.524 78.1937 52.4423 78.2238 52.4488 78.1941C52.7858 76.8563 53.4926 74.2716 53.8711 72.8044C53.905 72.6734 53.8832 71.9371 54.4367 70.8377C54.6767 69.0629 55.9071 65.9149 56.1872 63.5649C56.2602 63.2477 56.4259 62.8819 56.4585 62.7416C56.739 61.532 56.4174 61.9204 57.4088 59.2766C57.2459 59.4699 57.3085 58.8089 57.5422 57.9117C57.8937 56.5625 57.8534 57.5733 58.1096 56.4824C58.053 56.4682 57.9963 56.454 57.9397 56.4398C58.7191 53.9779 58.6017 53.4197 59.2296 50.9106C59.4556 50.0081 59.9154 48.7066 59.9697 48.4915C59.9902 48.4082 60.1012 47.3871 60.1238 47.2926C60.2529 46.7607 60.391 46.4768 60.5063 46.0187C60.8874 44.5048 61.163 42.6534 61.4035 43.0611C61.4398 42.6277 61.4762 42.1943 61.5125 41.7609C62.0073 40.7654 62.0902 39.8557 62.2163 39.2895C62.2173 39.286 62.2198 39.2754 62.2208 39.2718C62.2226 39.2333 62.2487 39.213 62.3641 39.211C62.2997 39.1565 62.2301 39.1129 62.1581 39.0809C62.1593 39.0217 62.152 38.9622 62.1364 38.9044C62.1057 38.7905 62.0419 38.6842 61.9532 38.6022C61.8648 38.52 61.7516 38.4623 61.6301 38.4393C61.5087 38.4159 61.3792 38.4273 61.2613 38.4732C61.2589 38.4741 61.2519 38.4774 61.2495 38.4783C58.0764 39.8311 54.9033 41.1839 51.7302 42.5367C51.5205 42.7483 48.721 43.9161 48.5714 43.962C47.8848 44.1737 48.4812 43.6521 47.1654 44.2814C47.0595 44.4427 46.9535 44.604 46.8475 44.7653C45.1799 45.5241 45.9467 45.0776 45.2546 45.2986C44.9825 45.4305 45.1047 45.4673 44.7318 45.6351C42.7091 46.5455 38.5366 48.3542 36.3132 49.3231C35.8649 49.5185 35.9021 49.4186 35.7626 49.4787C35.3796 49.6451 34.6617 50.0612 33.8926 50.3938C29.1363 52.45 22.3753 55.3144 17.5552 57.3103C17.2277 57.4457 17.1511 57.3789 16.9298 57.4696C16.6234 57.5957 15.9735 57.9575 15.6506 58.0887C15.3465 58.2125 15.1259 58.2321 14.8003 58.364C14.1395 58.6314 13.391 58.9701 12.6178 59.3073L12.629 59.3024C11.455 59.8198 10.1886 60.2397 9.04368 60.4298C8.86874 60.4834 6.6836 60.5817 6.63516 60.5436C6.33922 60.4338 8.13402 59.9583 5.08128 60.1799C7.75392 59.5763 6.8269 59.5563 3.39094 59.6444C5.11495 59.5267 6.82154 59.2225 8.47178 58.7406C8.46427 58.7028 8.45676 58.665 8.44923 58.6272C6.89603 58.8313 5.38291 59.078 3.0415 59.1476C3.11338 59.1098 3.1849 59.0716 3.25606 59.0331C5.30482 58.7957 7.73049 58.2739 9.12342 57.5672C6.91761 58.064 4.66433 58.2252 2.46248 58.059C2.57222 58.0302 2.68154 58.0006 2.79046 57.9703C3.84301 57.9068 6.11084 57.581 6.93752 57.305C10.0864 56.3345 4.08187 57.6772 5.04508 57.2684C7.10416 57.0128 9.12659 56.4609 11.0309 55.6346C12.2507 55.1095 13.4716 54.584 14.6926 54.0584C14.7158 54.0008 13.0466 54.6437 10.9497 55.4501C7.4079 56.9938 2.28179 56.9448 2.39626 56.6665C3.43756 56.6392 4.47508 56.5343 5.49738 56.3536C5.0266 56.3355 4.55935 56.3013 4.0967 56.2515C4.21962 56.2125 4.34198 56.1725 4.46365 56.1313C6.16876 55.8834 7.83365 55.4215 9.40741 54.764C4.50823 56.535 1.88942 56.0077 0.783184 55.2907C0.920054 55.2834 1.05641 55.2747 1.19273 55.2646C2.23703 55.916 7.53067 55.3046 9.97421 53.9734C9.42463 54.1068 7.1601 54.9253 6.63437 54.9236C6.48993 54.9336 6.95692 54.7356 6.62373 54.7646C5.75789 54.9393 2.11059 55.0304 2.64087 54.822C3.00844 54.9272 8.66732 53.8023 9.62946 53.1477C7.15316 54.0061 4.45355 54.456 1.88087 54.1853C3.50724 53.904 4.89446 53.5527 7.62669 52.7359C8.01781 52.5272 6.76566 52.8747 5.36898 53.0304C3.97263 53.2079 2.45232 53.1459 2.38566 53.1016C3.4069 53.0101 4.41233 52.8288 5.38677 52.5631C4.55349 52.7379 3.70554 52.851 2.85212 52.9006C2.84872 52.8714 2.84533 52.8422 2.84196 52.813C4.98432 52.6005 6.85719 51.9817 9.03453 51.0524C9.03674 51.0514 9.04351 51.0486 9.04573 51.0476C9.12157 51.0149 9.19788 50.9821 9.27468 50.9494C9.24401 50.9291 9.15162 50.9428 9.01675 50.9806C9.0145 50.9816 9.00762 50.9845 9.00537 50.9855C8.57595 51.0986 7.59549 51.4752 7.04642 51.6274ZM6.70105 188.301C6.55833 188.29 7.16004 187.315 7.49075 186.761C7.42124 186.833 7.35172 186.904 7.28222 186.976C8.00437 185.803 9.35217 183.622 9.18596 183.414C9.6595 182.553 9.62497 183.037 9.80752 182.777C9.87909 182.675 10.4234 181.508 11.0778 180.703C11.2014 180.493 11.325 180.283 11.4486 180.073C11.4022 179.991 11.3559 179.909 11.3095 179.827C11.568 179.585 11.8265 179.343 12.085 179.101C10.2912 182.166 8.49747 185.232 6.70374 188.297C6.70284 188.298 6.70195 188.3 6.70105 188.301ZM31.4045 160.11C32.9037 159.691 35.2609 159.418 34.7552 159.272C33.7835 159.429 32.8215 159.641 31.8753 159.906C31.7175 159.973 31.5605 160.041 31.4045 160.11ZM51.4729 107.696C51.1457 106.438 50.514 105.418 50.0308 103.485C49.9865 103.499 49.9421 103.514 49.8977 103.528C50.1969 104.291 50.7964 106.363 51.4729 107.696ZM-8.91805 216.348C-9.05412 216.544 -9.19022 216.74 -9.32629 216.936C-9.04891 215.976 -8.8088 215.917 -8.27225 214.962C-8.23995 214.905 -8.30095 214.895 -8.28953 214.875C-8.15644 214.643 -7.97087 214.465 -7.84856 214.256C-7.61273 213.853 -7.47915 213.49 -7.056 212.78C-6.72859 212.231 -6.63092 212.282 -6.51893 212.087C-6.42377 211.921 -5.71794 210.134 -4.9838 209.15C-3.58737 207.279 -8.53715 215.75 -8.91805 216.348ZM-11.3923 218.556C-11.3146 218.55 -11.2373 218.539 -11.161 218.523C-11.364 218.714 -10.9234 218.659 -10.6018 218.475C-10.5827 218.465 -10.564 218.454 -10.5458 218.444C-10.5343 218.468 -10.5446 218.498 -10.5731 218.53C-10.7106 218.718 -11.3512 218.843 -11.6673 218.831C-11.5629 218.746 -11.471 218.653 -11.3923 218.556ZM2.48578 197.355C2.04242 198.136 1.94461 197.904 1.91185 197.841C2.05752 197.595 2.20319 197.349 2.34885 197.103C2.3945 197.187 2.44013 197.271 2.48578 197.355ZM-0.895219 203.205C-0.871142 202.895 0.0705152 201.186 0.531721 200.384C0.552262 200.35 0.487809 200.607 0.814765 200.04C0.912871 199.87 1.66046 198.068 1.71196 198.593C0.843347 200.129 -0.0252561 201.666 -0.893868 203.203C-0.894323 203.204 -0.894763 203.205 -0.895219 203.205ZM-1.96834 204.859C-1.81827 204.521 -1.6682 204.183 -1.51813 203.844C-1.3659 203.714 -1.21366 203.583 -1.06142 203.453C-1.26042 203.821 -1.4594 204.189 -1.6584 204.557C-1.76171 204.658 -1.86502 204.759 -1.96834 204.859ZM47.4394 42.6368C47.5453 42.6662 47.6511 42.6955 47.757 42.7249C48.0778 42.6322 49.4366 41.7174 48.9456 41.8664C48.4436 42.1232 47.9415 42.38 47.4394 42.6368ZM41.1401 45.2035C40.8189 45.3045 40.4976 45.4055 40.1764 45.5065C39.8694 45.7668 39.5623 46.027 39.2552 46.2873C40.8222 45.6955 42.4923 45.0723 42.0918 44.8697C42.4433 44.7177 42.7948 44.5656 43.1463 44.4136C42.9069 44.6726 42.9654 44.6985 43.9213 44.3837C44.0437 44.1145 45.035 43.796 46.1065 43.2851C45.31 43.6169 44.5134 43.9488 43.7168 44.2806C43.7029 44.2485 43.689 44.2164 43.6752 44.1843C45.4454 43.4325 43.1633 44.1776 42.0686 44.8026C41.9595 44.799 41.8504 44.7954 41.7413 44.7918C41.5409 44.9291 41.3405 45.0663 41.1401 45.2035ZM77.6766 137.269C77.5452 137.067 77.4139 136.865 77.2826 136.663C76.3276 136.273 77.8981 137.396 78.512 138.641C78.426 138.127 79.768 139.665 79.8591 139.741C79.7733 139.503 79.6875 139.266 79.6017 139.028C78.96 138.442 78.3183 137.855 77.6766 137.269ZM73.4428 131.992C73.8182 132.763 71.1212 129.727 70.2577 128.672C70.0478 128.415 69.7513 127.889 69.5813 127.721C69.4506 127.643 69.3199 127.565 69.1892 127.487C69.1958 127.252 67.3007 125.376 66.5427 124.647C66.5212 124.534 66.4997 124.422 66.4781 124.309C66.208 124.038 65.9379 123.767 65.6677 123.495C65.7431 123.493 65.8185 123.491 65.8939 123.488C65.6502 123.318 65.4065 123.147 65.1628 122.977C64.3536 122.177 65.0544 122.492 64.4162 121.918C63.7069 121.28 64.5925 122.57 64.4812 122.629C65.0138 123.185 66.224 124.45 66.743 125.033C67.0409 125.368 66.5397 125.132 68.0075 126.414C68.2434 126.77 68.4793 127.127 68.7152 127.483C69.2998 128.004 69.8844 128.525 70.469 129.046C70.5037 129.209 70.5384 129.371 70.5732 129.534C70.6185 129.605 71.9467 130.831 71.9292 130.718C72.294 131.367 73.2622 132.507 74.2981 133.693C74.4317 133.777 74.5652 133.862 74.6987 133.946C73.6192 132.867 74.4133 133.552 74.1767 133.155C74.04 132.926 73.5817 132.261 73.4428 131.992ZM57.1087 38.2603C54.8402 39.4582 56.2284 38.6789 53.6909 39.7763C53.9099 39.7964 54.1289 39.8165 54.3479 39.8366C55.5191 39.1204 57.6228 38.3501 57.1112 38.2593C57.1103 38.2596 57.1095 38.26 57.1087 38.2603ZM32.4172 49.3203C33.7347 48.681 32.9958 48.822 34.677 48.0378C34.6778 48.0374 34.6787 48.037 34.6795 48.0367C33.7946 48.4065 32.9098 48.7763 32.025 49.1461C32.1557 49.2042 32.2864 49.2622 32.4172 49.3203ZM53.3558 81.1558C52.9702 82.5052 53.1169 82.2574 52.6483 83.4522C52.38 85.3388 52.7431 83.7758 52.918 83.8197C52.9721 83.3866 53.0262 82.9536 53.0802 82.5205C53.4993 81.5429 53.3394 82.5296 53.3551 82.5336C53.3553 82.5327 53.3555 82.5319 53.3557 82.531C53.4082 82.5442 53.411 82.58 53.5408 82.1972C53.4791 81.85 53.4175 81.5029 53.3558 81.1558ZM52.1114 87.0331C52.1123 86.5373 52.0157 86.2901 51.6336 87.4979C51.6334 87.4988 51.6332 87.4997 51.633 87.5005C51.8679 87.6641 51.3634 88.7875 51.2463 89.3281C51.2393 89.4758 51.2322 89.6235 51.2252 89.7712C51.5206 88.8585 51.816 87.9458 52.1114 87.0331ZM54.131 109.481C53.8856 109.644 53.2244 108.616 53.887 110.218C54.0703 110.496 54.2592 110.77 54.4535 111.041C54.6315 111.183 54.8109 111.323 54.9916 111.459C55.4202 112.231 55.8674 112.842 56.2392 113.278C57.075 114.265 57.414 114.299 56.4402 113.1C55.9294 112.472 55.1189 111.53 54.0946 110.086C54.0938 110.085 54.0931 110.084 54.0924 110.083C54.1026 109.881 54.1155 109.681 54.131 109.481ZM51.3181 102.81C51.1547 102.797 50.9914 102.783 50.8279 102.768C50.828 102.767 50.828 102.767 50.8281 102.766C50.9792 101.786 50.3716 100.679 50.4867 98.8471C50.427 98.6883 50.3688 98.5284 50.3122 98.3675C50.3365 98.0267 50.3024 96.1971 50.4578 94.641C50.5947 93.0848 50.8387 91.8012 50.5769 92.4865C50.3473 93.0896 50.3213 94.4792 50.3148 94.595C50.2649 94.9918 50.0894 95.5057 50.0755 96.1873C50.0663 96.582 50.2138 97.4088 50.2563 98.2032C50.3077 99.3364 50.3334 101.098 50.7306 102.79C50.9499 103.745 51.2775 104.669 51.7057 105.415C51.72 105.589 51.7363 105.764 51.7545 105.94C52.4516 107.548 52.3448 106.947 52.9177 108.48C53.5099 108.796 52.7066 107.391 52.1164 105.949C51.5094 104.513 51.1012 103.067 51.5971 103.743C51.5969 103.742 51.5966 103.741 51.5963 103.74C51.4974 103.432 51.4046 103.122 51.3181 102.81ZM58.7636 60.5106C58.9145 60.4534 59.1469 58.6868 59.3535 59.1674C59.3869 58.5801 59.4203 57.9929 59.4537 57.4056C59.424 57.4027 59.3943 57.3998 59.3646 57.3969C59.2474 57.9595 59.1302 58.5221 59.013 59.0847C58.9671 59.0755 58.9212 59.0662 58.8752 59.057C58.8313 59.9281 57.891 63.3738 57.7567 63.228C57.7782 63.4301 57.7997 63.6322 57.8211 63.8343C57.2207 65.4447 57.0598 66.9194 56.4267 68.679C56.4479 68.8329 56.469 68.9867 56.4902 69.1406C56.422 69.2203 56.3538 69.2999 56.2856 69.3796C56.1149 70.0356 55.9443 70.6916 55.7737 71.3475C55.4191 73.5357 56.6998 69.4325 56.7995 68.9211C56.8126 68.8531 56.6925 68.834 56.7791 68.4103C56.9334 67.6578 58.0954 63.5209 58.341 62.2133C58.4217 62.2217 58.5024 62.2301 58.5832 62.2386C58.6433 61.6626 58.7035 61.0866 58.7636 60.5106ZM59.332 116.421C59.3348 116.548 59.3376 116.675 59.3404 116.802C60.5085 118.002 61.152 118.84 61.071 118.339C61.0704 118.338 61.0698 118.338 61.0693 118.337C60.4902 117.698 59.9111 117.06 59.332 116.421ZM25.2248 164.349C25.2869 164.401 25.4967 164.328 25.8023 164.167C26.142 163.988 26.6008 163.702 27.1167 163.358C27.0447 163.343 26.9725 163.328 26.9001 163.314C26.6297 163.551 26.2599 163.704 25.6964 163.995C25.274 164.214 24.7408 164.512 24.0885 165.003C24.1366 165.07 24.1848 165.136 24.2329 165.202C24.5549 164.91 24.8856 164.625 25.2248 164.349ZM58.4035 115.315C58.1385 114.869 56.9722 113.989 57.5844 114.705C58.0526 115.252 58.5457 115.555 58.4035 115.315ZM27.0723 51.4595C27.4261 51.3251 27.78 51.1907 28.1338 51.0563C28.287 50.9143 28.4402 50.7722 28.5934 50.6302C28.5925 50.6305 28.5917 50.6309 28.5909 50.6312C28.0847 50.9073 27.5785 51.1834 27.0723 51.4595ZM54.5093 76.5015C54.2072 77.7478 53.9051 78.9942 53.603 80.2405C53.6439 80.2639 53.6848 80.2874 53.7257 80.3108C53.8776 79.0245 54.1764 78.5669 54.2599 78.279C54.2595 78.2803 54.2592 78.2815 54.2589 78.2828C54.5277 77.3586 54.7763 76.4762 55.0503 75.6067C54.87 75.905 54.6897 76.2032 54.5093 76.5015ZM55.8564 72.3074C55.4929 72.4389 55.3881 72.7035 55.1275 74.6693C55.1847 74.6032 55.242 74.5372 55.2992 74.4711C55.5247 73.4752 55.5978 72.8796 55.7163 73.0941C55.763 72.8319 55.8097 72.5696 55.8564 72.3074ZM50.8613 91.8647C50.9202 91.7733 51.0066 91.4167 51.1013 91.0164C51.2363 90.437 51.3567 89.7443 51.3103 89.798C51.2951 89.8155 51.0999 90.4349 50.9544 90.9812C50.7969 91.573 50.7142 92.0951 50.8613 91.8647ZM15.3373 176.193C15.5776 175.833 15.8179 175.473 16.0582 175.113C15.7952 175.625 15.5323 176.138 15.2693 176.65C15.292 176.498 15.3146 176.345 15.3373 176.193ZM13.3123 180.51C13.1202 180.754 13.3825 179.745 12.38 181.293C13.0578 180.136 13.7355 178.979 14.4132 177.821C14.133 178.386 13.8529 178.951 13.5727 179.516C13.6998 179.464 13.827 179.412 13.9541 179.359C13.7402 179.743 13.5263 180.126 13.3123 180.51ZM12.3974 181.641C12.9537 181.131 11.0311 184.412 10.8277 184.703C10.782 184.768 10.448 185.006 10.3469 185.107C10.6392 184.613 10.9315 184.118 11.2237 183.624C11.0809 183.763 10.938 183.902 10.7952 184.04C11.1221 183.453 11.4489 182.865 11.7758 182.278C11.6746 182.552 11.5735 182.826 11.4723 183.1C11.7806 182.614 12.089 182.127 12.3974 181.641ZM20.9057 168.302C20.5308 168.693 20.1689 169.097 19.8209 169.513C19.9529 169.481 20.0847 169.45 20.2163 169.421C20.4233 169.175 20.6352 168.934 20.8519 168.697C20.8686 168.565 20.8865 168.434 20.9057 168.302ZM15.2234 176.969C15.241 176.166 16.9534 174.963 15.5436 176.719C15.4013 176.896 15.2224 177.045 15.2234 176.969ZM10.0614 185.906C9.54707 187.339 9.1734 186.725 10.052 185.605C10.0966 185.549 10.1003 185.798 10.0614 185.906ZM4.36075 195.556C4.29724 195.659 4.01282 195.737 3.59207 196.831C3.47476 196.983 3.35743 197.136 3.24011 197.288C3.38548 196.855 5.28221 193.539 5.18842 194.097C4.89335 194.601 4.67427 195.039 4.36075 195.556ZM6.89814 192.759C7.18523 192.263 7.47233 191.767 7.75943 191.271C7.60782 191.401 7.45621 191.53 7.3046 191.66C7.43318 191.409 7.56177 191.157 7.69036 190.906C8.03132 190.547 8.37228 190.189 8.71324 189.83C8.09374 190.912 7.47425 191.993 6.85475 193.075C6.86921 192.97 6.88368 192.865 6.89814 192.759ZM14.7982 179.722C14.1669 180.63 13.5524 181.837 12.6281 183.372C12.6275 183.373 12.6269 183.374 12.6262 183.374C12.5799 183.451 12.4232 183.542 12.2737 183.788C12.1464 183.997 9.76551 188.211 9.82885 187.81C10.6669 186.13 11.1987 185.632 11.141 185.076C11.2479 185.033 11.3548 184.991 11.4616 184.948C12.4831 183.46 12.5356 182.895 12.9738 181.979C13.0173 182.01 13.0608 182.04 13.1043 182.07C13.4527 181.492 13.8011 180.914 14.1495 180.335C14.0711 180.4 13.9927 180.464 13.9143 180.528C14.0359 180.322 14.1576 180.117 14.2792 179.911C14.7104 179.49 15.1176 178.874 14.7982 179.722ZM5.49858 194.953C5.57394 195.613 2.70695 199.918 1.57785 201.991C2.00076 200.802 3.1213 199.236 3.81141 198.075C5.14535 195.83 4.09875 197.308 4.2686 196.893C4.35251 196.689 5.32829 195.545 5.49858 194.953ZM16.7901 176.219C16.0991 177.323 15.8074 177.997 15.1071 178.891C15.1299 178.795 15.1527 178.699 15.1756 178.603C15.3951 178.285 17.0696 175.621 16.7901 176.219ZM-0.273255 204.913C1.13145 202.822 0.187097 203.705 1.08746 202.718C0.664003 203.468 0.240549 204.217 -0.182913 204.966C-0.213027 204.949 -0.243141 204.931 -0.273255 204.913ZM57.6314 112.158C57.6135 112.138 57.5956 112.117 57.5777 112.096C56.8504 111.262 56.189 110.25 55.7025 109.785C56.1128 110.435 56.5563 111.066 57.0312 111.674C57.2075 111.821 57.3856 111.966 57.5654 112.108C57.5872 112.124 57.6093 112.141 57.6314 112.158ZM78.7317 133.842C78.5988 133.637 77.8855 132.99 77.8189 132.914C77.6949 132.774 77.7684 132.777 77.7769 132.766C76.9586 131.853 77.5843 132.81 76.9575 132.153C76.8504 132.04 75.5013 130.389 74.9228 129.743C74.0329 128.75 73.1599 127.744 72.8281 127.372C72.2682 126.744 71.1432 125.655 70.224 124.622C69.8451 124.196 69.7872 123.982 69.4063 123.554C66.9605 120.807 62.0691 115.466 59.9569 112.977C59.4352 112.362 59.023 111.7 58.733 111.388C58.6736 111.337 58.6141 111.286 58.5546 111.234C58.3557 111.064 58.1596 110.889 57.9662 110.71C57.6463 109.637 57.1469 109.597 56.4928 108.673C56.0868 108.084 56.0359 107.727 55.9873 107.646C55.6739 107.097 55.4789 106.845 55.2505 106.402C54.9925 105.904 54.7331 105.14 54.6524 104.958C54.6171 104.84 54.5333 105.297 53.8646 103.214C53.7546 102.845 53.655 102.474 53.5656 102.101C53.1386 100.315 52.9427 98.4842 52.978 96.6139C52.4655 97.3677 52.826 98.0347 52.9259 98.9513C52.9544 99.199 52.8595 99.0494 52.8852 99.2656C52.9514 99.8788 53.2194 101.025 53.3138 101.523C53.3806 101.899 53.2966 101.944 53.3148 102.162C53.3233 102.257 53.3517 102.385 53.426 102.585C53.4385 102.618 53.4837 102.491 53.5383 102.646C54.1151 104.188 54.1438 104.748 55.0273 106.637C55.3288 107.301 56.6563 109.679 58.2955 111.463C59.6908 113.028 60.9377 114.435 61.0076 114.55C61.45 115.284 59.7549 113.462 58.1062 111.63C56.8301 110.233 55.8454 108.622 55.6335 108.234C55.4558 107.915 55.7206 108.203 55.569 107.908C55.5047 107.786 54.7371 106.759 54.241 105.6C53.8855 104.795 53.4447 103.465 53.1722 102.197C52.9687 101.277 52.843 100.396 52.7648 99.7946C52.4008 97.044 52.5682 94.2326 53.2456 91.5555C55.5173 82.5423 57.822 73.5959 60.0938 64.5447C60.1562 64.2961 60.1448 63.9452 60.348 63.1351C62.2364 55.6094 64.177 47.9516 66.1181 40.2681C66.3389 39.4137 66.314 38.4994 66.047 37.6594C65.7822 36.8191 65.2763 36.0561 64.6045 35.4847C63.9341 34.9116 63.1001 34.5322 62.2274 34.4035C61.3544 34.2724 60.4457 34.3927 59.6373 34.746C55.9652 36.3332 52.3043 37.9205 48.6679 39.5056C45.5126 40.8808 42.4154 42.3191 39.1987 43.6319C38.831 43.8676 38.4634 44.1033 38.0957 44.339C39.0854 43.85 41.0027 43.1943 41.1725 43.1234C41.2335 43.0978 41.5857 42.859 42.2059 42.5954C43.0779 42.2244 43.4867 42.1226 43.5581 42.0917C43.7794 41.9962 43.6054 41.9918 43.8168 41.9007C45.3938 41.2222 46.6047 40.6759 48.0505 40.0498C49.6839 39.3427 50.566 39.1098 51.6962 38.4579C51.8541 38.4532 52.012 38.4486 52.1698 38.4439C52.8836 37.8862 57.2963 35.9792 59.721 34.9439C59.9372 34.8511 60.1397 34.7841 60.3198 34.7353C60.9249 34.5903 60.8373 34.7361 61.0382 34.7044C61.1513 34.7144 61.1138 34.5115 62.1961 34.6144C62.3485 34.6359 62.5219 34.67 62.7162 34.7259C63.4992 34.9753 63.6256 35.2039 63.9659 35.4065C64.1459 35.5277 64.1768 35.4244 64.4261 35.6254C64.4376 35.635 64.449 35.6446 64.4603 35.6542C65.1416 36.2362 65.5858 36.9607 65.8219 37.7311C66.0589 38.5126 66.088 39.3535 65.8644 40.2008C65.8557 40.2344 65.8479 40.2645 65.84 40.2948C65.6881 40.8803 65.6079 40.8671 65.576 40.9986C65.4583 41.4829 65.3804 42.3572 65.0718 43.5859C64.5638 45.6085 63.5522 49.6397 63.0728 51.2775C63.0023 51.5182 62.8576 51.6959 62.8141 51.8751C62.7486 52.1464 62.8203 52.2772 62.8089 52.3249C62.5835 53.2305 62.6287 52.663 62.4989 53.2749C62.4289 53.6047 62.4555 53.9736 62.2777 54.7364C62.0428 55.7436 61.9593 55.5128 61.8675 55.9352C61.8585 55.98 61.9477 56.0164 61.8475 56.429C61.4667 57.9935 60.9198 60.2643 60.5488 61.7421C60.4424 62.1666 60.3009 62.4667 60.1513 63.0585C59.8501 64.251 58.189 71.0419 58.0136 71.589C57.9952 71.6467 58.0099 71.0095 57.773 71.9716C57.7598 72.265 57.7466 72.5584 57.7334 72.8518C57.5254 73.2957 57.3173 73.7397 57.1093 74.1836C57.4278 74.2457 56.7876 77.0039 56.4731 76.8959C56.3847 77.1931 56.2963 77.4903 56.2079 77.7876C56.273 78.469 56.0865 78.8651 55.9137 80.1072C55.7983 80.2786 55.6829 80.4501 55.5676 80.6215C55.6011 80.6803 55.6346 80.7391 55.668 80.798C55.2602 81.3817 55.2417 82.5022 55.2108 82.631C55.0923 83.1267 54.9366 83.4825 54.8804 83.7149C54.6697 84.5825 54.2857 86.4788 53.992 87.4802C53.9781 87.5272 53.8847 87.4541 53.7995 87.7386C53.6459 88.2518 53.7871 88.341 53.4327 88.9878C53.443 89.1389 53.4534 89.2901 53.4637 89.4413C53.403 89.5837 53.3423 89.7261 53.2816 89.8686C53.1555 90.4024 53.0294 90.9362 52.9033 91.4701C52.8178 91.8301 52.7411 92.1927 52.6734 92.5568C52.6742 91.6756 52.3457 92.6273 52.35 93.5831C52.3521 93.9046 52.5036 93.642 52.5051 93.7489C52.4116 93.8849 52.1678 98.1088 52.2145 98.398C52.2625 98.5965 52.3131 98.7938 52.3663 98.99C52.3053 99.0972 52.2452 99.2054 52.1858 99.3143C52.2218 99.4226 52.2587 99.5305 52.2963 99.638C52.2969 100.242 52.5255 101.346 52.8188 102.282C53.0621 103.078 53.3377 103.756 53.4025 103.984C53.4846 104.249 53.0929 104.116 53.6034 105.361C53.6972 105.374 53.791 105.386 53.8846 105.398C54.0097 105.675 54.1404 105.95 54.2765 106.222C54.5003 106.745 54.7581 107.548 54.687 107.618C54.8233 107.749 54.9609 107.879 55.0996 108.006C55.1376 108.534 56.6176 110.667 57.4014 111.353C57.5119 111.553 57.6259 111.753 57.7433 111.951C57.7803 112.015 57.8175 112.079 57.8547 112.143C58.1626 112.386 58.4704 112.629 58.7783 112.873C59.3857 113.529 58.6735 112.898 58.7923 113.047C59.044 113.363 60.5508 114.774 60.2777 114.834C60.4626 115.045 60.6476 115.255 60.8325 115.466C60.9803 115.528 61.1281 115.59 61.276 115.651C61.4133 116.172 62.0278 116.74 63.0913 118.078C63.2277 118.149 63.3641 118.22 63.5005 118.29C63.7905 118.738 64.0806 119.187 64.3707 119.635C64.5113 119.655 64.652 119.676 64.7927 119.696C64.9545 119.859 65.1163 120.023 65.2781 120.186C65.4322 120.672 66.1533 121.153 66.3717 121.529C66.6903 122.078 66.2612 121.815 65.4757 120.968C65.4203 121.132 67.7481 123.666 68.2812 124.254C68.2685 124.195 68.2557 124.137 68.243 124.078C67.6889 123.485 67.1348 122.892 66.5807 122.299C66.4139 121.539 67.7955 123.258 68.5008 123.984C68.5654 124.051 69.0192 124.349 69.6833 125.122C69.9404 125.421 70.802 126.714 70.9877 126.942C72.4857 128.784 71.5555 127.279 72.8949 129.193C72.7251 128.697 73.4825 129.807 74.4301 130.823C74.5914 130.996 76.039 132.391 76.1317 132.49C76.7095 133.106 75.9689 132.534 76.8112 133.419C76.9432 133.498 77.0752 133.577 77.2073 133.657C77.3953 133.87 77.5833 134.083 77.7714 134.296C78.6011 135.864 79.0958 135.963 79.5309 136.397C79.7066 136.572 79.4144 136.405 79.8565 136.871C80.0229 137.047 80.2679 137.188 80.7031 137.672C82.0649 139.186 82.2328 139.96 83.7723 141.098C83.9188 141.352 84.0652 141.606 84.2117 141.86C84.3923 141.959 84.5729 142.058 84.7535 142.158C85.5827 143.404 85.384 142.865 85.7366 143.268C86.6675 144.333 88.5526 146.53 88.595 146.831C89.6904 147.493 90.3318 148.874 90.6614 149.225C90.8856 149.408 91.1097 149.592 91.3338 149.776C91.5212 150.059 91.7085 150.342 91.8959 150.625C92.0193 150.362 92.4935 151.062 92.7977 151.54C92.8968 151.705 92.9568 151.841 92.9786 151.873C93.0429 151.946 93.6786 152.781 93.8383 153.686C93.9254 154.1 93.9333 154.499 93.9112 154.755C93.8838 155.137 93.7493 155.644 93.5531 156.046C93.3415 156.495 93.0771 156.812 93.0414 156.863C92.9901 156.935 92.6689 157.478 92.0943 157.922C91.8021 158.152 91.4514 158.352 91.1093 158.48C90.9044 158.557 90.445 158.705 89.8529 158.732C87.4615 158.864 83.5241 159.082 83.8633 159.187C84.3148 159.203 84.9557 159.199 85.5089 159.182C86.1267 159.163 87.8238 159.072 89.8635 158.956C90.6716 158.919 91.5335 158.643 92.25 158.139C92.9701 157.639 93.5303 156.92 93.846 156.167C94.2384 155.25 94.2676 154.313 94.1554 153.632C94.1008 153.289 94.0163 153.004 93.9396 152.79C93.7466 152.25 93.45 151.743 93.0674 151.306C90.0834 147.872 86.989 144.369 84.0209 140.956C83.8206 140.726 83.8631 140.627 83.6915 140.429C83.4307 140.129 82.6901 139.437 82.4325 139.142C81.4709 138.039 80.3051 136.693 79.7887 136.104C78.634 134.788 77.8836 133.848 77.0143 132.848C76.7421 132.536 75.2642 131.043 74.3516 129.931C74.1999 129.718 74.0482 129.504 73.8965 129.291C74.4103 129.825 75.7573 131.227 76.3609 131.896C77.2588 132.894 77.6624 133.471 77.9912 133.841C78.2663 134.152 79.7361 135.681 80.3762 136.404C80.5749 136.628 80.5388 136.742 80.7087 136.934C81.6308 137.975 82.845 139.348 83.7186 140.186C83.3682 139.839 85.3558 142.187 85.4628 142.307C85.6457 142.515 85.916 142.676 86.2894 143.1C87.0075 143.914 86.7662 143.943 87.8138 144.828C87.9922 145.118 88.1705 145.409 88.3489 145.699C88.5627 145.538 91.0975 148.96 92.1391 149.651C92.1875 149.65 88.6178 145.446 88.3207 145.102C86.5385 143.033 83.8164 140.046 82.0985 138.028C81.5815 137.42 80.0444 135.433 79.917 135.293C79.7117 135.067 79.8244 135.335 79.7348 135.238C77.8982 133.261 78.9285 134.147 78.7317 133.842ZM13.487 182.283C13.9139 181.583 14.3408 180.883 14.7678 180.183C14.7879 180.265 14.808 180.346 14.8281 180.427C14.6173 180.738 14.4065 181.05 14.1956 181.361C14.0787 181.627 13.9618 181.894 13.8449 182.16C13.7256 182.201 13.6063 182.242 13.487 182.283ZM12.6693 184.146C12.3327 184.773 12.2087 184.74 12.1199 184.878C11.8548 185.29 11.6821 185.68 11.4386 186.088C11.4648 185.467 12.1743 184.533 12.6693 184.146ZM20.384 171.535C20.2861 171.647 19.4976 172.269 19.0672 173.346C19.0286 173.445 18.9926 173.547 18.9602 173.653C18.4161 174.389 17.8721 175.125 17.328 175.861C17.8846 175.092 18.4605 174.076 18.9135 173.255C19.2202 172.7 19.4994 172.242 19.678 171.984C19.8532 171.733 19.9665 171.742 20.1098 171.545C20.9291 170.411 21.7081 169.258 22.0409 169.375C21.0611 170.277 20.5219 171.375 20.384 171.535ZM16.067 178.388C15.9013 178.537 15.7355 178.685 15.5698 178.833C15.9599 178.174 16.35 177.515 16.74 176.856C16.693 177.069 16.646 177.281 16.599 177.494C16.4217 177.792 16.2443 178.09 16.067 178.388ZM69.1983 160.257C68.727 160.289 68.2557 160.321 67.7843 160.353C67.8135 160.4 68.3527 160.362 68.5536 160.382C68.5527 160.382 68.5518 160.382 68.551 160.382C68.7748 160.404 68.6845 160.473 69.0887 160.473C69.1252 160.401 69.1618 160.329 69.1983 160.257ZM37.487 44.3735C36.7588 44.6846 30.0468 47.5869 30.6894 47.5034C31.013 47.4606 33.2776 46.3965 33.955 46.1051C34.8681 45.7122 37.4087 44.8237 37.487 44.3735ZM25.5863 49.4822C25.5406 49.6957 29.7465 47.9076 30.1444 47.7019C30.0472 47.7163 29.8906 47.7225 29.7695 47.7609C29.1794 47.9493 26.5099 49.1358 25.5863 49.4822ZM94.0471 156.499C93.8226 156.768 93.5743 157.005 93.3107 157.207C93.4548 157.21 93.6009 157.206 93.7484 157.195C93.8665 156.97 93.9662 156.736 94.0471 156.499ZM73.6599 129.105C69.604 124.499 65.5482 119.892 61.4924 115.286C61.886 115.659 62.2795 116.031 62.6731 116.404C66.1586 120.381 69.8527 124.643 73.2874 128.423C73.4115 128.65 73.5357 128.878 73.6599 129.105ZM21.9137 170.461C22.9731 169.253 23.9053 168.248 25.385 167.298C24.1501 168.413 23.3974 168.826 22.4347 170.139C22.4341 170.14 22.4335 170.141 22.4329 170.141C22.259 170.245 22.0859 170.352 21.9137 170.461ZM55.1743 161.684C54.703 161.799 54.2316 161.914 53.7603 162.028C54.334 161.989 54.9077 161.949 55.4814 161.909C55.3791 161.834 55.2767 161.759 55.1743 161.684ZM56.0291 82.67C56.2561 81.0312 57.5931 77.0285 57.71 75.6796C57.7174 75.5923 57.4362 76.3411 57.5785 75.0523C57.3773 76.0023 57.2462 76.6758 57.3624 76.7796C57.2469 77.0477 57.1314 77.3159 57.0159 77.5841C56.9339 78.0565 56.8519 78.5288 56.77 79.0012C56.6493 78.9175 56.6472 78.956 56.5597 79.6913C56.4445 80.0077 56.3293 80.3241 56.2141 80.6405C56.236 80.7923 56.2579 80.9441 56.2798 81.0959C56.1303 81.3574 55.9809 81.6188 55.8314 81.8803C55.642 82.9981 55.9625 82.3687 56.0291 82.67ZM54.5959 88.2464C54.6903 87.9944 56.4498 80.5735 55.3409 83.8685C55.1302 84.7444 54.9196 85.6202 54.7089 86.496C55.3305 85.8828 54.3398 88.1651 54.2815 88.3583C54.0038 89.2833 53.8094 90.502 53.6337 91.1795C53.5909 91.3444 53.5469 91.4889 53.5035 91.6206C53.3924 91.9599 53.2915 92.2195 53.2301 92.5234C52.904 93.9628 52.7736 96.2966 52.978 96.6139C52.9999 95.4799 53.1084 94.33 53.3092 93.1678C53.3965 92.6653 53.5242 92.1965 53.676 91.6637C53.8938 90.9006 54.1252 89.9911 54.3189 88.6281C54.4836 88.079 54.5715 88.3115 54.5959 88.2464ZM52.3227 162.109C52.3671 161.917 49.4667 162.163 49.4533 162.239C49.4506 162.283 50.3961 162.216 50.5323 162.223C50.5332 162.223 50.5341 162.223 50.5349 162.223C50.5917 162.226 50.3111 162.318 50.7568 162.307C51.2788 162.241 51.8007 162.175 52.3227 162.109ZM47.7588 39.4718C47.3557 39.5308 39.1216 43.1332 38.8988 43.2848C38.8383 43.3263 38.9488 43.3291 38.9334 43.3649C40.7986 42.3956 43.6046 41.3747 45.436 40.5954C45.9464 40.378 45.7645 40.375 45.7928 40.3613C45.794 40.3607 45.7952 40.3602 45.7964 40.3597C46.0853 40.2346 47.4625 39.8385 47.7588 39.4718ZM58.3268 72.867C58.2052 73.2304 58.0836 73.5938 57.9621 73.9572C57.9951 74.0655 58.0282 74.1737 58.0612 74.282C58.0614 74.2811 58.0616 74.2803 58.0619 74.2794C58.1501 73.8086 58.2384 73.3378 58.3268 72.867ZM61.7337 60.0738C61.6712 60.154 61.6087 60.2342 61.5462 60.3144C61.3067 61.2461 61.0671 62.1778 60.8276 63.1095C60.8286 63.0098 60.8297 62.9102 60.8308 62.8105C60.4168 64.2063 60.4103 64.8257 60.2017 65.5722C60.2019 65.5714 60.2021 65.5705 60.2023 65.5697C60.1797 65.65 60.0721 65.727 59.9938 66.0272C59.8143 66.7153 59.2876 68.6846 59.3112 68.9445C59.3627 69.4948 60.276 65.4948 60.4702 64.755C60.5581 64.4207 60.7319 64.0356 60.7848 63.8321C60.8424 63.6091 60.8206 63.2801 60.9601 62.7366C61.0011 62.5776 61.5594 60.841 61.7337 60.0738ZM65.7457 43.5736C65.5836 43.8389 65.5198 44.4614 65.4497 44.6784C65.433 44.7303 65.4606 44.3013 65.3134 44.7928C65.3295 44.9463 65.3455 45.0998 65.3615 45.2533C65.4896 44.6934 65.6176 44.1335 65.7457 43.5736ZM47.4503 162.536C47.5352 162.55 49.0935 162.435 49.1675 162.417C50.0897 162.184 46.8623 162.426 47.4503 162.536ZM15.8831 181.026C16.4607 180.533 11.9094 187.749 11.4996 188.467C11.3877 188.353 12.5546 186.686 11.8309 187.492C12.4477 186.679 13.8219 184.235 14.187 183.685C14.4085 183.351 14.5748 183.332 14.6092 183.282C14.743 183.085 15.6795 181.2 15.8831 181.026ZM7.8204 194.477C8.25836 193.795 8.69632 193.112 9.13429 192.43C8.6623 193.262 8.19032 194.094 7.71833 194.926C7.75235 194.776 7.78637 194.627 7.8204 194.477ZM7.36166 195.39C7.50371 195.444 6.00452 197.754 5.66601 198.393C5.86199 197.562 6.76113 196.514 7.36166 195.39ZM37.1369 163.638C38.4081 163.649 38.9199 163.156 37.3963 163.461C37.35 163.471 37.0838 163.636 37.1369 163.638ZM56.7471 82.4466C56.8024 82.2378 57.5997 79.6668 57.5665 79.4981C57.4595 78.9641 57.1213 80.6977 56.8919 81.2494C56.5213 82.1394 56.7481 80.7507 56.2656 83.0292C56.2434 82.9254 56.2211 82.8217 56.1989 82.718C55.8525 84.0354 56.2754 83.6819 56.2563 83.9291C56.2504 84.0048 56.0168 84.8242 55.9995 84.9783C55.7858 86.9036 56.6962 82.6405 56.7471 82.4466ZM68.4379 161.504C70.9645 161.466 69.8677 161.34 72.4516 161.174C72.5307 161.065 68.7592 161.391 68.4379 161.504ZM55.6401 106.08C54.9388 104.665 54.5197 103.312 54.1803 101.952C53.9686 101.096 53.79 100.233 53.6173 99.3196C53.5162 99.3906 53.6188 100.622 53.9784 102.001C54.4874 104.142 55.7759 106.47 55.6401 106.08ZM19.802 50.6053C29.3178 47.03 40.0023 42.2315 49.921 37.9336C51.0021 37.4653 51.1495 37.5217 51.5361 37.3415C51.7893 37.2236 51.7092 37.1614 52.0497 37.0137C54.473 35.9626 56.8746 34.9166 59.2591 33.8759C60.2299 33.4477 61.3206 33.3004 62.368 33.4529C63.421 33.6035 64.4266 34.0563 65.2365 34.7417C66.0517 35.4279 66.6667 36.3462 66.9917 37.3587C67.3207 38.3743 67.3564 39.4813 67.0953 40.5147C65.5467 46.788 64.0063 52.9932 62.4249 59.1895C62.2246 59.9736 61.0815 63.7466 61.156 64.6326C61.2129 65.3029 61.736 62.5177 61.8526 62.0609C61.9401 61.7176 62.0433 61.7279 62.1011 61.4989C62.1624 61.256 62.0441 61.4397 62.1138 61.1573C62.4089 59.9604 62.7627 58.6623 63.0281 57.5797C64.4349 51.8435 65.8415 46.1964 67.2562 40.5535C67.5283 39.4915 67.4952 38.3516 67.1609 37.3048C66.8295 36.258 66.1984 35.3079 65.3603 34.596C64.5254 33.8832 63.4868 33.4105 62.3981 33.2499C61.3125 33.0869 60.1805 33.2352 59.1709 33.6757C58.2854 34.0576 57.3972 34.4407 56.5073 34.8246C55.2988 35.3461 55.5145 35.1632 55.4536 35.1892C55.4529 35.1897 55.4521 35.1902 55.4514 35.1908C48.9711 37.9849 41.6468 41.3532 34.7583 44.2555C29.9047 46.2929 25.0512 48.3303 20.1976 50.3677C20.0657 50.4469 19.9339 50.5261 19.802 50.6053ZM55.1102 87.7811C55.5707 87.2195 55.3032 87.0011 55.9991 84.7465C55.9944 84.5477 55.9898 84.3489 55.9851 84.1501C55.6931 85.3617 55.4012 86.5733 55.1093 87.785C55.1096 87.7837 55.1099 87.7824 55.1102 87.7811ZM59.0056 72.7142C59.5086 72.4299 60.5034 67.2474 61.158 64.9657C61.0598 64.4927 60.3124 67.861 60.0931 68.6445C59.9837 69.0357 59.2448 71.0929 58.9587 72.7257C58.9744 72.7219 58.99 72.718 59.0056 72.7142ZM20.9558 173.684C21.1453 173.363 21.3435 173.047 21.5502 172.737C21.1792 173.205 20.8276 173.691 20.4968 174.192C20.3063 174.481 20.1159 174.77 19.9255 175.059C20.1074 174.765 20.2892 174.471 20.471 174.177C21.0812 173.191 21.772 172.258 22.5336 171.389C22.4211 171.657 22.3149 171.927 22.2153 172.197C21.7743 172.671 21.3537 173.167 20.9558 173.684ZM23.9567 169.918C22.1682 171.818 23.8687 169.668 24.4492 169.322C24.7801 169.105 24.1407 169.726 23.9567 169.918ZM29.5519 166.177C29.0461 166.5 28.2841 166.96 27.7272 167.291C27.1547 167.627 26.7769 167.805 27.0575 167.43C27.2593 167.326 27.4466 167.227 27.6274 167.129C28.501 166.665 29.2098 166.176 30.6875 165.632C30.4535 165.791 30.2237 165.954 29.9984 166.122C29.9972 166.122 29.9961 166.123 29.9949 166.123C29.8475 166.139 29.6998 166.157 29.5519 166.177ZM23.2646 170.898C22.6365 171.473 23.1359 170.842 23.7217 170.258C24.3062 169.673 24.9703 169.153 24.4379 169.713C24.3789 169.757 23.3045 170.844 23.2646 170.898ZM29.9791 45.8609C29.8245 46.0362 31.063 45.4986 31.4779 45.3264C33.2767 44.5808 35.5513 43.5499 37.4152 42.7587C37.2623 42.7892 37.1093 42.8197 36.9564 42.8501C34.6306 43.8537 32.3048 44.8573 29.9791 45.8609ZM43.2291 40.2451C44.506 39.6929 45.7829 39.1407 47.0599 38.5884C47.1789 38.537 47.7032 38.2172 47.2798 38.3776C45.9296 39.0001 44.5793 39.6226 43.2291 40.2451ZM54.073 96.3529C54.1421 95.3399 54.4021 98.2621 54.1337 98.1442C54.0876 97.5489 54.0673 96.951 54.073 96.3529ZM56.077 105.566C55.7828 104.998 55.5144 104.415 55.2735 103.819C55.3064 103.806 55.3394 103.794 55.3723 103.781C55.5791 104.387 55.8144 104.982 56.077 105.566ZM24.9312 47.9675C25.6294 47.7968 27.1736 47.1087 28.1422 46.6926C27.4347 46.8858 25.8664 47.6194 24.9312 47.9675ZM57.5604 80.9727C57.4597 81.0366 58.512 76.9259 58.2947 78.386C58.05 79.2482 57.8052 80.1105 57.5604 80.9727ZM59.7749 72.6428C59.5709 73.5299 59.372 74.2068 59.2925 73.9938C59.4153 73.5271 59.538 73.0604 59.6607 72.5937C59.6988 72.61 59.7368 72.6264 59.7749 72.6428ZM33.9339 164.893C34.9971 164.637 36.0813 164.467 37.173 164.384C37.5612 164.354 37.9483 164.324 38.3354 164.295C38.2811 164.334 38.2268 164.373 38.1725 164.412C37.8421 164.437 37.5117 164.463 37.1813 164.488C36.0923 164.571 35.012 164.741 33.9528 164.996C33.9465 164.962 33.9402 164.927 33.9339 164.893ZM24.0097 48.0215C23.0521 48.4607 22.0946 48.8999 21.137 49.339C22.1139 48.9423 23.0907 48.5455 24.0676 48.1488C24.049 48.1058 24.0305 48.0629 24.0119 48.0199C24.0112 48.0205 24.0104 48.021 24.0097 48.0215ZM19.4536 177.784C21.981 173.836 19.0857 179.069 18.2485 180.01C18.248 180.011 18.2475 180.012 18.247 180.013C18.1736 180.096 18.2014 179.846 18.0739 179.98C18.3568 179.594 18.6397 179.207 18.9227 178.82C19.0943 178.416 19.2659 178.013 19.4376 177.609C19.5301 177.497 19.6227 177.385 19.7152 177.274C19.628 177.444 19.5408 177.614 19.4536 177.784ZM9.90241 194.103C7.72246 197.749 9.71437 193.877 10.9605 192.171C10.9933 192.208 10.1032 193.767 9.90241 194.103ZM15.5247 184.494C15.8455 183.906 16.1663 183.318 16.4871 182.73C16.5561 182.671 16.625 182.612 16.6939 182.554C16.4574 183.011 16.2209 183.468 15.9844 183.925C15.8312 184.115 15.678 184.304 15.5247 184.494ZM28.4599 168.122C29.2419 167.698 30.1047 166.901 28.1827 168.03C28.0014 168.144 27.797 168.279 27.5693 168.44C27.5902 168.468 27.6111 168.497 27.632 168.525C27.7332 168.449 28.0271 168.221 28.0461 168.213C28.0896 168.194 28.101 168.278 28.2903 168.204C28.3356 168.187 28.3911 168.16 28.4599 168.122ZM6.69393 201.344C6.64385 201.455 6.9298 201.701 5.9585 202.588C5.78495 202.927 5.61138 203.267 5.43782 203.606C5.31739 203.649 5.19696 203.692 5.07652 203.735C5.88074 202.5 5.81782 202.282 5.86907 202.188C6.10493 201.759 5.99376 202.114 6.15556 201.843C6.57308 201.143 7.46721 199.52 7.24841 200.367C7.16925 200.671 6.74402 201.234 6.69393 201.344ZM8.34151 198.975C8.22392 199.113 8.42336 198.563 8.32828 198.663C8.24512 198.751 7.24625 200.221 7.33289 199.715C7.4879 199.468 7.64291 199.221 7.79792 198.974C7.89144 198.915 7.98497 198.856 8.07849 198.796C8.18221 198.53 8.28594 198.264 8.38966 197.997C8.73843 197.652 9.39179 196.863 8.86705 197.948C9.08284 197.563 9.29863 197.177 9.51442 196.792C9.57978 196.565 9.64514 196.338 9.71051 196.111C9.72737 196.26 9.74423 196.409 9.76109 196.558C9.2879 197.364 8.8147 198.17 8.34151 198.975ZM1.33989 210.738C1.32701 210.667 1.31412 210.597 1.30123 210.527C0.550156 211.967 -0.707594 214.157 -0.229609 212.774C0.868234 210.871 1.96607 208.968 3.06392 207.065C3.16849 206.957 3.27308 206.849 3.37766 206.742C2.42625 208.083 3.18082 207.941 2.31217 209.084C2.1656 209.276 2.34719 208.573 1.68886 209.939C1.75668 209.917 1.82452 209.895 1.89234 209.872C1.70819 210.161 1.52403 210.449 1.33989 210.738ZM-6.89753 223.189C-3.88267 220.526 -6.78615 223.687 -7.79746 223.865C-7.81818 223.872 -7.83731 223.878 -7.85468 223.884C-7.8535 223.883 -7.85233 223.882 -7.85116 223.882C-8.71844 224.111 -8.46748 223.935 -7.91326 223.642C-7.12952 223.259 -5.93935 222.276 -5.8514 222.142C-5.6772 221.945 -5.42149 221.499 -4.84107 220.688C-4.68392 220.479 -4.47697 220.246 -4.19817 219.991C-4.35666 220.256 -4.51515 220.52 -4.67365 220.785C-5.23887 221.731 -6.00131 222.555 -6.89753 223.189ZM-1.14388 214.933C-1.25482 215.139 -1.24982 214.992 -1.30024 215.079C-1.30069 215.08 -1.30115 215.08 -1.30159 215.081C-2.04554 216.368 -3.79161 219.442 -4.18286 219.656C-3.63888 218.699 -1.174 214.438 -0.889072 214.261C-0.974012 214.485 -1.05894 214.709 -1.14388 214.933ZM4.03683 205.846C4.62855 205.136 3.59922 206.914 3.26612 207.343C3.20159 207.423 3.42382 206.582 4.03683 205.846ZM50.8192 165.33C52.8159 165.103 50.1783 165.197 51.0796 164.995C50.6979 165.034 50.3162 165.072 49.9346 165.11C50.2294 165.184 50.5243 165.257 50.8192 165.33ZM69.3774 118.679C69.0801 118.317 69.1632 118.539 69.1354 118.51C68.9338 118.277 68.7939 118.014 68.7103 117.931C67.163 116.387 68.0692 117.522 68.0713 117.55C68.0389 117.64 67.5861 117.275 68.0397 117.934C68.3809 118.275 68.7221 118.617 69.0633 118.959C69.1867 119.169 69.3101 119.38 69.4334 119.59C70.142 120.242 69.3334 119.284 69.3389 119.09C69.3418 119.014 69.9846 119.649 69.3774 118.679ZM54.4273 165.362C54.7418 165.192 55.5248 164.952 54.733 164.858C54.7321 164.858 54.7312 164.859 54.7303 164.859C54.584 164.842 53.9943 164.868 53.8108 164.842C52.535 165.127 53.043 165.295 54.4273 165.362ZM75.2958 124.989C75.7842 125.595 76.2727 126.201 76.7612 126.806C76.6862 126.855 76.6113 126.903 76.5363 126.952C76.279 126.624 76.0216 126.296 75.7642 125.969C75.6375 125.886 75.5108 125.803 75.3841 125.72C75.6503 126.174 75.9164 126.628 76.1826 127.082C76.6206 127.526 77.0587 127.969 77.4967 128.412C77.3424 128.167 77.1882 127.922 77.0339 127.676C78.0786 128.783 77.6985 128.677 78.4696 129.675C78.8161 129.944 79.1625 130.213 79.509 130.482C79.8601 131.004 80.2113 131.527 80.5625 132.049C81.2849 132.81 81.3928 132.838 80.9962 132.246C81.4214 132.567 81.6727 133.106 82.1208 133.548C82.1577 133.584 82.1687 133.445 82.1999 133.478C84.3984 135.868 84.0856 135.913 84.4201 136.31C84.6564 136.589 85.7566 137.566 85.8176 137.543C85.8978 137.51 84.131 135.017 87.2846 138.58C85.8254 136.587 83.8045 134.641 84.7542 136.214C84.264 135.608 81.9316 133.088 81.7942 132.918C81.5943 132.668 81.7618 132.67 81.4998 132.368C81.3449 132.19 80.7172 131.909 79.6673 130.342C79.4742 130.194 79.2811 130.046 79.088 129.898C78.9688 129.705 78.8495 129.511 78.7302 129.318C79.138 129.573 79.5458 129.828 79.9535 130.083C78.6339 128.812 77.8416 127.491 76.9292 126.813C76.3139 126.074 76.0253 125.706 76.3889 125.936C76.198 125.719 76.007 125.503 75.8161 125.286C75.6426 125.187 75.4692 125.088 75.2958 124.989ZM60.2976 164.744C61.2602 164.814 61.5824 164.496 61.4329 164.49C60.5907 164.456 59.7967 164.707 60.2976 164.744ZM70.4072 120.083C71.0475 120.924 71.6878 121.765 72.328 122.606C72.3981 122.544 72.4681 122.482 72.5381 122.42C71.8278 121.641 71.1175 120.862 70.4072 120.083ZM50.5409 165.56C50.4393 165.497 50.3378 165.434 50.2362 165.371C49.102 165.706 47.9331 165.419 47.3691 165.534C47.2468 165.559 47.5047 165.665 47.742 165.675C47.8897 165.681 50.3385 165.598 50.5409 165.56ZM15.5348 187.512C15.7134 187.118 15.892 186.724 16.0706 186.33C16.1263 186.39 16.1819 186.451 16.2375 186.512C16.142 186.702 16.0464 186.892 15.9508 187.082C15.8121 187.226 15.6735 187.369 15.5348 187.512ZM17.9198 183.236C18.316 182.579 18.7121 181.922 19.1083 181.265C17.68 183.82 18.9335 181.772 18.1167 183.353C18.0511 183.314 17.9854 183.275 17.9198 183.236ZM22.012 176.634C22.0044 176.74 21.9968 176.845 21.9893 176.95C21.5985 177.61 21.2077 178.27 20.817 178.931C21.2045 178.596 21.592 178.262 21.9796 177.927C22.1231 177.685 22.2667 177.444 22.4102 177.202C22.2775 177.013 22.1447 176.824 22.012 176.634ZM57.8023 103.173C57.6572 102.814 57.1376 101.552 57.1105 101.616C57.1934 102.182 57.3035 102.747 57.441 103.308C57.5297 103.278 57.6185 103.248 57.7072 103.218C57.691 103.309 57.6756 103.401 57.6609 103.493C57.8095 103.783 57.9654 104.068 58.1284 104.348C58.1197 104.53 58.114 104.713 58.1111 104.896C58.2666 105.005 58.4231 105.111 58.5804 105.213C58.0465 103.751 57.9635 103.85 57.8354 103.551C57.7765 103.398 57.7949 103.281 57.8021 103.217C57.8022 103.202 57.8022 103.187 57.8023 103.173ZM71.3358 120.235C69.8994 118.572 68.8837 117.793 67.9865 116.464C68.3319 117.519 73.0279 122.157 74.2892 124.141C74.5015 124.275 74.7137 124.409 74.926 124.543C74.0427 123.637 73.5719 122.884 73.1798 122.408C72.8683 122.03 72.8468 122.117 72.8229 122.088C72.8217 122.087 72.8205 122.085 72.8194 122.084C72.0838 121.204 71.9024 120.891 71.3358 120.235ZM48.9359 166.016C49.5327 166.086 50.5627 166.004 50.563 165.841C49.9861 165.834 49.4091 165.827 48.8321 165.82C48.9528 165.853 48.834 166.004 48.9359 166.016ZM22.8568 176.097C22.9281 176.003 23.0146 175.871 23.098 175.731C23.3016 175.39 23.4947 174.999 23.2476 175.19C23.2116 175.218 23.0555 175.526 22.953 175.645C22.8874 175.726 22.8418 175.737 22.8519 175.586C22.8519 175.557 22.8538 175.523 22.8581 175.481C22.8416 175.509 22.8261 175.536 22.8117 175.562C22.3574 176.373 22.7029 176.3 22.8568 176.097ZM95.9298 148.618C95.9564 148.647 95.9831 148.677 96.0097 148.706L96.0013 148.697C96.3745 149.11 96.7078 149.56 96.9946 150.039C97.1245 150.13 97.253 150.226 97.3797 150.327C96.9896 149.72 96.5284 149.168 96.0133 148.686L96.0218 148.696C95.9911 148.67 95.9605 148.644 95.9298 148.618ZM43.9714 166.473C43.4349 166.189 42.5778 166.561 41.5944 166.365C41.2377 166.387 40.8811 166.41 40.5244 166.433C40.5235 166.433 40.5226 166.433 40.5217 166.433C40.5181 166.521 40.5145 166.609 40.5109 166.697C41.6644 166.622 42.8179 166.548 43.9714 166.473ZM80.0522 130.38C80.1797 130.586 80.3072 130.792 80.4347 130.998C80.7516 131.286 81.0684 131.573 81.3853 131.861C81.2586 131.666 81.1319 131.471 81.0052 131.276C80.6875 130.977 80.3699 130.679 80.0522 130.38ZM37.7059 166.935C38.9558 166.888 39.4056 166.578 37.8107 166.688C37.6471 166.699 37.4794 166.722 37.3381 166.75C37.0157 166.823 36.8627 166.931 37.3472 166.941C37.4474 166.942 37.5648 166.94 37.7059 166.935ZM59.822 81.8453C59.6947 82.255 59.5674 82.6647 59.4401 83.0743C59.4614 83.2301 59.4828 83.3858 59.5041 83.5416C59.6101 82.9761 59.716 82.4107 59.822 81.8453ZM19.8102 181.183C19.7854 181.11 19.7606 181.037 19.7357 180.964C19.9405 180.641 20.1452 180.318 20.35 179.995C20.3511 180.108 20.3523 180.22 20.3534 180.332C20.1723 180.616 19.9913 180.899 19.8102 181.183ZM59.0859 84.632C58.9917 84.9614 58.8976 85.2908 58.8034 85.6202C58.7751 85.8503 58.7468 86.0803 58.7184 86.3104C58.8238 86.0065 58.9292 85.7026 59.0345 85.3988C59.0517 85.1432 59.0688 84.8876 59.0859 84.632ZM28.3689 170.061C28.5395 169.982 28.8907 169.715 29.1067 169.529C29.3123 169.352 29.3874 169.237 29.0327 169.409C28.9528 169.449 28.8515 169.503 28.726 169.577C27.9259 170.062 28.3157 170.089 28.3689 170.061ZM26.7062 171.449C27.9762 170.576 26.5817 170.733 25.5897 172.371C26.8593 171.026 26.6431 171.512 26.7062 171.449ZM18.6706 184.005C18.6468 184.044 18.5432 184.027 18.3526 184.342C17.6669 185.476 16.7428 186.961 16.255 187.774C15.0822 189.727 11.6805 195.823 11.0209 196.381C10.8831 196.497 10.9292 196.069 10.8861 196.124C10.7608 196.286 10.2406 197.334 10.2379 197.082C10.8221 196.097 11.4063 195.112 11.9905 194.126C11.9268 194.415 11.8631 194.704 11.7994 194.993C13.2104 192.512 12.7342 193.328 12.9792 192.519C13.2922 192.143 13.6053 191.767 13.9183 191.391C14.3864 190.447 14.8546 189.502 15.3227 188.557C15.2515 188.792 15.1803 189.027 15.1091 189.262C16.009 187.954 15.7238 188.296 16.0435 187.478C16.0946 187.506 16.1457 187.535 16.1969 187.563C16.8534 186.174 17.1557 186.007 17.3277 185.72C17.6798 185.132 17.5302 184.028 19.4534 182.129C19.7304 181.011 20.2964 181.376 20.3321 180.644C21.6029 179.228 19.6795 182.213 18.8137 183.652C18.8132 183.652 18.8128 183.653 18.8123 183.654C18.7469 183.762 18.9033 183.621 18.6706 184.005ZM23.2406 175.612C22.9801 176.536 25.0537 173.521 24.0116 174.262C23.8914 174.403 23.7733 174.545 23.6572 174.69C23.5087 174.995 23.3694 175.303 23.2395 175.614C23.2399 175.614 23.2403 175.613 23.2406 175.612ZM58.6371 165.739C62.752 165.328 60.3955 165.317 59.0107 165.584C58.7344 165.637 58.5849 165.694 58.6371 165.739ZM69.4335 117.726C69.3663 117.705 69.299 117.684 69.2318 117.663C70.1743 118.68 71.8421 120.783 72.0019 120.593C71.1458 119.637 70.2896 118.682 69.4335 117.726ZM76.8077 125.843C76.6219 125.61 75.8436 124.675 75.8718 124.846C76.1716 125.284 76.4715 125.723 76.7713 126.161C76.9642 126.318 77.1571 126.475 77.35 126.632C77.1336 126.366 76.8581 125.906 76.8077 125.843Z" fill="#2F8F83"/>
</g>
<defs>
<clipPath id="clip0_5_80">
<rect width="192" height="192" rx="30" fill="white"/>
</clipPath>
</defs>
</svg>
