<svg width="32" height="32" viewBox="0 0 32 32" fill="none" xmlns="http://www.w3.org/2000/svg">
<g clip-path="url(#clip0_6_115)">
<path d="M32 0H0V32H32V0Z" fill="#F4F8F7"/>
<g clip-path="url(#clip1_6_115)">
<path d="M-3.91273 10.8407C-3.31923 10.6964 -2.77027 10.4085 -2.31412 10.0023L4.61945 3.86206C4.75097 3.74493 4.91273 3.66707 5.08632 3.63733C5.2599 3.60759 5.43835 3.62715 5.60137 3.69381C5.76438 3.76046 5.90542 3.87153 6.00844 4.01437C6.11146 4.15721 6.17232 4.3261 6.18411 4.50182L6.8396 13.7357C6.88251 14.3454 7.07326 14.9354 7.39535 15.4549C7.71744 15.9743 8.16119 16.4075 8.68823 16.717L16.6691 21.4073C16.8214 21.496 16.9458 21.6257 17.028 21.7817C17.1102 21.9376 17.1469 22.1134 17.134 22.2892C17.1212 22.465 17.0592 22.6336 16.9551 22.7759C16.8511 22.9182 16.7092 23.0284 16.5456 23.0939L7.95916 26.5813C7.39325 26.8104 6.89155 27.1737 6.49733 27.6399C6.10312 28.1061 5.82822 28.6612 5.69635 29.2573L3.69493 38.3022C3.65686 38.4735 3.57169 38.6306 3.44902 38.756C3.32636 38.8814 3.17108 38.9701 3.00072 39.0119" stroke="#2F8F83" stroke-width="2" stroke-linecap="round" stroke-linejoin="round"/>
</g>
</g>
<defs>
<clipPath id="clip0_6_115">
<rect width="32" height="32" rx="6.66667" fill="white"/>
</clipPath>
<clipPath id="clip1_6_115">
<rect width="42.6105" height="42.6105" fill="white" transform="translate(24.5383 37.3826) rotate(166.212)"/>
</clipPath>
</defs>
</svg>
